<?xml version="1.0" encoding="UTF-8"?>
<!DOCTYPE svg PUBLIC "-//W3C//DTD SVG 1.1//EN" "http://www.w3.org/Graphics/SVG/1.1/DTD/svg11.dtd">
<!-- Creator: CorelDRAW (Evaluation Version) -->
<svg xmlns="http://www.w3.org/2000/svg" xml:space="preserve" width="14.75mm" height="6.1842mm" version="1.1" shape-rendering="geometricPrecision" text-rendering="geometricPrecision" image-rendering="optimizeQuality" fill-rule="evenodd" clip-rule="evenodd"
viewBox="0 0 1008.23 422.72"
 xmlns:xlink="http://www.w3.org/1999/xlink"
 xmlns:xodm="http://www.corel.com/coreldraw/odm/2003">
 <g id="Layer_x0020_1">
  <metadata id="CorelCorpID_0Corel-Layer"/>
  <g id="_1861928447328">
   <path fill="#20665D" fill-rule="nonzero" fill-opacity="0.400000" d="M185.21 32.79c4.55,0.9 7.93,2.45 10.18,4.65 2.27,2.17 3.41,4.73 3.41,7.65 0,4.83 -1.37,8.35 -4.09,10.54 -2.69,2.17 -6.94,3.03 -12.75,2.58 -13.17,-1.03 -23.43,-1.72 -30.8,-2.06 -7.37,-0.38 -17.03,-0.64 -28.98,-0.78 -5.41,26.87 -10.38,53.88 -14.93,81.01 -1.59,9.92 -3.26,21.43 -5.02,34.51 -1.76,13.06 -2.93,23.6 -3.51,31.62 -0.29,4.24 -2.04,7.49 -5.27,9.77 -3.21,2.25 -7.07,3.36 -11.58,3.36 -4.83,0 -8.56,-1.15 -11.21,-3.46 -2.62,-2.34 -3.92,-5.43 -3.92,-9.25 0,-3.48 0.54,-9.26 1.65,-17.36 1.09,-8.13 2.37,-16.64 3.82,-25.52 1.61,-8.91 2.86,-16.65 3.72,-23.2 1.61,-11.12 3.44,-22.14 5.48,-33.06 2.07,-10.96 4.11,-21.31 6.15,-31.11 0.44,-2.19 0.96,-4.71 1.55,-7.54 0.58,-2.86 1.24,-6.05 1.96,-9.56 -14.34,0.46 -25.58,1.63 -33.74,3.51 -8.16,1.9 -13.98,4.57 -17.41,8.01 -3.41,3.41 -5.11,7.83 -5.11,13.23 0,4.96 1.44,9.71 4.33,14.26 0.58,1.01 0.88,2.09 0.88,3.25 0,2.79 -1.64,5.4 -4.91,7.81 -3.28,2.41 -6.66,3.62 -10.18,3.62 -2.48,0 -4.53,-0.74 -6.15,-2.22 -2.89,-2.48 -5.3,-6.01 -7.23,-10.59 -1.9,-4.61 -2.84,-9.83 -2.84,-15.65 0,-12.43 4.05,-22.4 12.15,-29.92 8.12,-7.5 20.47,-13.01 37.04,-16.53 16.56,-3.51 37.83,-5.27 63.81,-5.27 16.04,0 28.86,0.29 38.44,0.87 9.57,0.59 17.93,1.54 25.06,2.84zm0 0z"/>
   <path fill="#20665D" fill-rule="nonzero" fill-opacity="0.400000" d="M179.73 215.64c-5.56,0 -9.45,-2.91 -11.73,-8.73 -2.25,-5.85 -3.36,-15.2 -3.36,-28.06 0,-18.98 2.7,-37.01 8.11,-54.1 1.31,-4.2 3.47,-7.28 6.46,-9.25 3,-1.99 7.18,-2.99 12.56,-2.99 2.92,0 4.98,0.36 6.15,1.09 1.16,0.72 1.76,2.12 1.76,4.18 0,2.35 -1.11,7.59 -3.31,15.76 -1.45,5.83 -2.62,10.94 -3.51,15.35 -0.87,4.38 -1.59,9.77 -2.17,16.17 4.82,-12.53 10.23,-22.74 16.23,-30.64 5.99,-7.88 11.85,-13.5 17.62,-16.84 5.75,-3.37 11.03,-5.07 15.87,-5.07 9.51,0 14.26,4.75 14.26,14.26 0,1.9 -0.66,6.5 -1.96,13.79 -1.18,5.83 -1.76,9.46 -1.76,10.9 0,5.14 1.82,7.7 5.48,7.7 4.05,0 9.31,-3.21 15.76,-9.66 1.89,-1.89 3.85,-2.84 5.89,-2.84 1.89,0 3.38,0.85 4.5,2.54 1.09,1.69 1.65,3.91 1.65,6.66 0,5.41 -1.48,9.64 -4.4,12.71 -4.11,4.24 -8.89,7.85 -14.36,10.85 -5.45,3 -11.24,4.5 -17.36,4.5 -7.75,0 -13.64,-1.96 -17.67,-5.89 -4.01,-3.95 -5.99,-9.3 -5.99,-16.02 0,-2.19 0.22,-4.39 0.67,-6.56 0.27,-2.92 0.42,-4.91 0.42,-5.94 0,-2.3 -0.81,-3.46 -2.43,-3.46 -2.17,0 -5.05,2.45 -8.63,7.33 -3.59,4.85 -7.13,11.31 -10.64,19.37 -3.49,8.04 -6.33,16.49 -8.52,25.37 -1.59,6.86 -3.45,11.49 -5.58,13.9 -2.11,2.41 -5.43,3.62 -9.97,3.62zm0 0z"/>
   <path fill="#20665D" fill-rule="nonzero" fill-opacity="0.400000" d="M286.19 215.64c-6.59,0 -11.96,-3.02 -16.12,-9.09 -4.18,-6.06 -6.25,-13.6 -6.25,-22.63 0,-10.95 0.72,-20.99 2.17,-30.12 1.48,-9.12 3.9,-18.8 7.29,-29.04 1.45,-4.36 3.47,-7.5 6.1,-9.4 2.65,-1.89 6.82,-2.84 12.5,-2.84 3.21,0 5.43,0.52 6.66,1.55 1.24,1 1.86,2.53 1.86,4.6 0,1.17 -0.8,5.11 -2.37,11.83 -1.49,5.37 -2.67,10.27 -3.51,14.68 -2.93,15.33 -4.4,25.55 -4.4,30.64 0,3.08 0.36,5.22 1.09,6.46 0.72,1.24 1.89,1.86 3.51,1.86 2.19,0 4.94,-2.18 8.22,-6.56 3.27,-4.36 6.77,-11.01 10.49,-19.89 3.72,-8.91 7.34,-19.89 10.85,-32.91 1.17,-4.36 2.96,-7.5 5.38,-9.4 2.4,-1.89 6.02,-2.84 10.85,-2.84 3.34,0 5.66,0.41 6.97,1.24 1.31,0.81 1.97,2.28 1.97,4.45 0,3.65 -1.81,13.66 -5.43,30.01 -4.11,18.68 -6.15,30.2 -6.15,34.57 0,2.79 0.58,4.96 1.76,6.51 1.16,1.52 2.7,2.28 4.6,2.28 2.92,0 6.38,-1.78 10.38,-5.37 4.03,-3.58 9.41,-9.38 16.12,-17.42 1.72,-2.02 3.68,-3.05 5.89,-3.05 1.89,0 3.39,0.88 4.5,2.64 1.1,1.76 1.65,4.17 1.65,7.23 0,5.82 -1.39,10.34 -4.18,13.54 -6.28,7.74 -13.02,14.1 -20.25,19.06 -7.24,4.96 -15.45,7.44 -24.65,7.44 -7,0 -12.14,-2.69 -15.45,-8.06 -3.28,-5.4 -4.91,-12.99 -4.91,-22.78 -2.48,9.92 -6.2,17.55 -11.16,22.89 -4.96,5.31 -10.28,7.96 -15.96,7.96zm0 0z"/>
   <path fill="#20665D" fill-rule="nonzero" fill-opacity="0.400000" d="M462.69 165.73c1.89,0 3.37,0.88 4.44,2.64 1.09,1.76 1.65,4.17 1.65,7.23 0,5.82 -1.39,10.34 -4.14,13.54 -5.41,6.58 -13.05,12.65 -22.89,18.18 -9.85,5.56 -20.4,8.32 -31.67,8.32 -15.33,0 -27.23,-4.15 -35.7,-12.45 -8.45,-8.33 -12.66,-19.73 -12.66,-34.2 0,-10.05 2.12,-19.43 6.36,-28.11 4.24,-8.68 10.1,-15.56 17.62,-20.67 7.51,-5.13 16.02,-7.7 25.52,-7.7 8.43,0 15.2,2.53 20.31,7.59 5.13,5.04 7.7,11.86 7.7,20.46 0,10.06 -3.62,18.71 -10.85,25.94 -7.21,7.23 -19.43,12.95 -36.69,17.15 3.64,6.72 10.59,10.08 20.82,10.08 6.58,0 14.05,-2.28 22.43,-6.87 8.39,-4.61 15.67,-10.64 21.8,-18.09 1.76,-2.02 3.73,-3.05 5.95,-3.05zm-55.18 -31.77c-5.41,0 -9.97,3.15 -13.69,9.45 -3.72,6.27 -5.58,13.85 -5.58,22.73l0 0.46c8.6,-2.03 15.39,-5.09 20.36,-9.2 4.96,-4.09 7.44,-8.85 7.44,-14.26 0,-2.75 -0.77,-4.97 -2.32,-6.66 -1.52,-1.67 -3.59,-2.53 -6.2,-2.53zm0 0z"/>
   <path fill="#20665D" fill-rule="nonzero" fill-opacity="0.400000" d="M507.98 215.64c-8.45,0 -18,-0.72 -28.67,-2.17 -5.82,-0.72 -9.84,-2.25 -12.04,-4.6 -2.21,-2.34 -3.15,-6.15 -2.84,-11.42 1.03,-14.42 3.44,-32.25 7.23,-53.47 3.79,-21.24 8.38,-41.74 13.79,-61.49 1,-3.62 3.02,-6.15 6.1,-7.59 3.06,-1.47 7.1,-2.22 12.09,-2.22 8.89,0 13.33,2.48 13.33,7.44 0,2.04 -0.44,4.36 -1.29,6.97 -3.82,11.72 -7.64,27.38 -11.42,47.02 -3.8,19.63 -6.5,38.36 -8.11,56.16 4.4,0.41 9.38,0.62 14.93,0.62 25.52,0 44.59,-7.73 57.2,-23.2 12.63,-15.46 18.96,-36.12 18.96,-61.95 0,-17.39 -4.96,-30.82 -14.88,-40.3 -9.92,-9.51 -23.92,-14.26 -42,-14.26 -11.68,0 -23.25,1.83 -34.72,5.48 -11.47,3.66 -21.8,8.48 -31,14.47 -1.9,1.31 -3.92,1.96 -6.1,1.96 -2.52,0 -4.49,-1.05 -5.94,-3.15 -1.45,-2.13 -2.17,-4.73 -2.17,-7.81 0,-3.47 0.58,-6.35 1.76,-8.63 1.16,-2.28 3.12,-4.35 5.89,-6.25 10.05,-6.84 21.87,-12.06 35.44,-15.65 13.6,-3.57 26.67,-5.37 39.22,-5.37 17.8,0 33.2,3.12 46.19,9.35 13.02,6.2 23.02,15.29 30.01,27.28 6.99,11.96 10.49,26.39 10.49,43.3 0,22.05 -4.38,41.29 -13.12,57.71 -8.76,16.43 -21.53,29.18 -38.34,38.24 -16.77,9.03 -36.77,13.53 -59.98,13.53zm0 0z"/>
   <path fill="#20665D" fill-rule="nonzero" fill-opacity="0.400000" d="M661.07 215.64c-9.06,0 -16.3,-3.27 -21.7,-9.82 -5.41,-6.58 -8.11,-15.2 -8.11,-25.89 0,-11.67 2.7,-22.73 8.11,-33.17 5.4,-10.44 12.58,-18.82 21.55,-25.16 8.99,-6.33 18.52,-9.51 28.62,-9.51 3.21,0 5.34,0.62 6.41,1.87 1.09,1.24 2.02,3.46 2.79,6.66 3.06,-0.58 6.26,-0.88 9.61,-0.88 7.15,0 10.75,2.56 10.75,7.65 0,3.08 -1.11,10.37 -3.31,21.91 -3.34,16.77 -5.01,28.46 -5.01,35.02 0,2.21 0.53,3.97 1.6,5.28 1.1,1.31 2.53,1.96 4.29,1.96 2.79,0 6.15,-1.78 10.07,-5.37 3.96,-3.58 9.28,-9.38 15.97,-17.42 1.76,-2.02 3.73,-3.05 5.94,-3.05 1.89,0 3.38,0.88 4.5,2.64 1.1,1.76 1.65,4.17 1.65,7.23 0,5.82 -1.39,10.34 -4.19,13.54 -5.99,7.48 -12.34,13.77 -19.06,18.85 -6.71,5.11 -13.21,7.65 -19.47,7.65 -4.83,0 -9.25,-1.63 -13.28,-4.91 -4.01,-3.31 -7.01,-7.8 -9.04,-13.49 -7.58,12.27 -17.14,18.39 -28.67,18.39zm7.85 -22.11c3.23,0 6.3,-1.89 9.2,-5.68 2.92,-3.79 5.04,-8.81 6.35,-15.09l8.11 -40.3c-6.13,0.14 -11.8,2.45 -17,6.92 -5.16,4.44 -9.28,10.31 -12.34,17.62 -3.08,7.27 -4.6,15.01 -4.6,23.2 0,4.52 0.9,7.88 2.74,10.08 1.82,2.17 4.34,3.25 7.54,3.25zm0 0z"/>
   <path fill="#20665D" fill-rule="nonzero" fill-opacity="0.400000" d="M765.75 98.05c-6.14,0 -10.73,-1.41 -13.79,-4.24 -3.08,-2.86 -4.6,-6.84 -4.6,-11.93 0,-5.13 1.99,-9.41 5.99,-12.82 4.03,-3.43 9.02,-5.17 14.98,-5.17 5.4,0 9.78,1.33 13.12,3.98 3.37,2.62 5.07,6.34 5.07,11.16 0,5.82 -1.9,10.47 -5.69,13.9 -3.79,3.41 -8.82,5.12 -15.09,5.12zm-1.76 117.59c-9.51,0 -16.42,-3.36 -20.72,-10.08 -4.31,-6.72 -6.46,-15.61 -6.46,-26.71 0,-6.58 0.84,-15 2.54,-25.26 1.67,-10.29 3.83,-19.9 6.45,-28.83 1.31,-4.65 3.05,-7.85 5.22,-9.6 2.19,-1.76 5.71,-2.64 10.54,-2.64 7.44,0 11.16,2.48 11.16,7.44 0,3.66 -1.38,12.13 -4.13,25.42 -3.51,16.06 -5.27,26.92 -5.27,32.61 0,4.37 0.58,7.74 1.76,10.08 1.16,2.35 3.12,3.51 5.89,3.51 2.65,0 5.95,-1.83 9.87,-5.48 3.93,-3.64 9.17,-9.41 15.76,-17.31 1.76,-2.02 3.73,-3.05 5.94,-3.05 1.89,0 3.37,0.88 4.44,2.64 1.09,1.76 1.65,4.17 1.65,7.23 0,5.82 -1.38,10.34 -4.14,13.54 -14.46,17.67 -27.98,26.5 -40.51,26.5zm0 0z"/>
   <path fill="#20665D" fill-rule="nonzero" fill-opacity="0.400000" d="M873.92 165.73c1.89,0 3.37,0.88 4.44,2.64 1.1,1.76 1.65,4.17 1.65,7.23 0,5.82 -1.38,10.34 -4.14,13.54 -6.27,7.74 -13.11,14.1 -20.51,19.06 -7.38,4.96 -15.73,7.44 -25.06,7.44 -12.85,0 -22.37,-5.84 -28.57,-17.51 -6.2,-11.68 -9.3,-26.78 -9.3,-45.31 0,-17.8 2.28,-38.09 6.87,-60.86 4.61,-22.76 11.39,-42.33 20.36,-58.7 8.99,-16.35 19.7,-24.54 32.14,-24.54 6.99,0 12.47,3.25 16.48,9.76 4.03,6.49 6.04,15.78 6.04,27.9 0,17.4 -4.83,37.55 -14.46,60.45 -9.61,22.91 -22.67,45.61 -39.16,68.1 0.99,5.99 2.66,10.27 5.01,12.81 2.34,2.56 5.4,3.83 9.19,3.83 5.99,0 11.24,-1.71 15.76,-5.12 4.55,-3.43 10.3,-9.32 17.31,-17.67 1.76,-2.02 3.73,-3.05 5.94,-3.05zm-26.97 -135.32c-3.34,0 -7.13,6.07 -11.37,18.19 -4.23,12.09 -7.96,27.12 -11.16,45.11 -3.21,17.95 -4.96,35.17 -5.27,51.66 10.36,-17.08 18.61,-34.2 24.74,-51.35 6.12,-17.16 9.2,-32.81 9.2,-46.97 0,-11.08 -2.06,-16.64 -6.15,-16.64zm0 0z"/>
   <path fill="#20665D" fill-rule="nonzero" fill-opacity="0.400000" d="M974.4 166.14c1.89,0 3.38,0.92 4.5,2.74 1.09,1.83 1.65,4.13 1.65,6.92 0,3.35 -0.51,5.98 -1.54,7.91 -1.01,1.9 -2.61,3.56 -4.81,5.01l-42.06 28.26c-5.56,30.2 -12.82,53.95 -21.81,71.25 -8.96,17.28 -20.38,25.93 -34.25,25.93 -7.44,0 -13.51,-2.31 -18.19,-6.92 -4.65,-4.58 -6.97,-10.59 -6.97,-18.03 0,-6.86 1.56,-13.88 4.7,-21.03 3.12,-7.13 8.96,-15.35 17.51,-24.64 8.54,-9.28 20.63,-19.88 36.27,-31.83l0.62 -5.07c1.03,-5.37 2.19,-13.1 3.51,-23.2 -2.93,10.51 -7.03,18.5 -12.3,23.97 -5.24,5.48 -10.77,8.22 -16.58,8.22 -6.59,0 -11.96,-3.02 -16.12,-9.09 -4.17,-6.06 -6.25,-13.6 -6.25,-22.63 0,-10.95 0.72,-20.99 2.17,-30.12 1.48,-9.12 3.9,-18.8 7.29,-29.04 1.45,-4.36 3.47,-7.5 6.1,-9.4 2.65,-1.89 6.82,-2.84 12.5,-2.84 3.21,0 5.43,0.52 6.66,1.55 1.24,1 1.86,2.53 1.86,4.6 0,1.17 -0.8,5.11 -2.37,11.83 -1.49,5.37 -2.67,10.27 -3.51,14.68 -1.18,5.97 -2.21,11.67 -3.1,17.15 -0.87,5.48 -1.29,9.97 -1.29,13.49 0,5.56 1.52,8.32 4.6,8.32 2.19,0 4.94,-2.18 8.22,-6.56 3.27,-4.36 6.77,-11.01 10.49,-19.89 3.72,-8.91 7.33,-19.89 10.85,-32.91 1.16,-4.36 2.96,-7.5 5.37,-9.4 2.41,-1.89 6.02,-2.84 10.85,-2.84 3.33,0 5.65,0.45 6.97,1.34 1.31,0.87 1.96,2.32 1.96,4.35 0,3.65 -1.89,16.21 -5.68,37.66l-5.68 35.28c11.22,-8.47 22.17,-16.22 32.86,-23.25 1.89,-1.16 3.56,-1.76 5.01,-1.76zm-95.89 126.79c3.64,0 7.72,-4.24 12.25,-12.71 4.55,-8.45 9.06,-22.52 13.58,-42.26 -11.24,9.51 -19.37,18.15 -24.44,25.94 -5.04,7.81 -7.54,14.65 -7.54,20.51 0,2.47 0.46,4.5 1.39,6.1 0.96,1.61 2.54,2.43 4.75,2.43zm0 0z"/>
   <path fill="#FEFEFE" fill-rule="nonzero" d="M176.49 24.08c4.55,0.9 7.94,2.45 10.18,4.65 2.28,2.17 3.41,4.73 3.41,7.65 0,4.83 -1.37,8.34 -4.08,10.54 -2.69,2.17 -6.94,3.03 -12.76,2.58 -13.16,-1.04 -23.43,-1.72 -30.79,-2.07 -7.38,-0.38 -17.03,-0.63 -28.98,-0.77 -5.41,26.86 -10.38,53.88 -14.94,81.01 -1.59,9.92 -3.25,21.43 -5.01,34.51 -1.76,13.06 -2.93,23.6 -3.51,31.62 -0.28,4.24 -2.04,7.49 -5.27,9.76 -3.2,2.25 -7.06,3.36 -11.57,3.36 -4.83,0 -8.56,-1.15 -11.21,-3.47 -2.62,-2.34 -3.93,-5.42 -3.93,-9.25 0,-3.47 0.55,-9.26 1.65,-17.36 1.1,-8.13 2.38,-16.64 3.83,-25.52 1.61,-8.91 2.85,-16.65 3.72,-23.2 1.61,-11.12 3.43,-22.14 5.48,-33.07 2.06,-10.95 4.11,-21.31 6.15,-31.1 0.44,-2.19 0.95,-4.72 1.54,-7.55 0.58,-2.85 1.24,-6.04 1.96,-9.56 -14.33,0.45 -25.57,1.63 -33.73,3.51 -8.17,1.9 -13.98,4.57 -17.42,8.01 -3.4,3.4 -5.11,7.83 -5.11,13.23 0,4.96 1.45,9.71 4.34,14.26 0.58,1 0.88,2.09 0.88,3.25 0,2.79 -1.64,5.4 -4.91,7.8 -3.28,2.42 -6.66,3.62 -10.18,3.62 -2.47,0 -4.53,-0.74 -6.15,-2.23 -2.89,-2.47 -5.31,-6 -7.23,-10.59 -1.9,-4.61 -2.84,-9.83 -2.84,-15.65 0,-12.43 4.05,-22.4 12.14,-29.92 8.13,-7.51 20.47,-13.02 37.05,-16.54 16.56,-3.51 37.83,-5.27 63.81,-5.27 16.04,0 28.85,0.3 38.44,0.88 9.58,0.59 17.93,1.54 25.06,2.84zm0 0z"/>
   <path fill="#FEFEFE" fill-rule="nonzero" d="M171.02 206.93c-5.56,0 -9.46,-2.91 -11.73,-8.74 -2.25,-5.85 -3.36,-15.2 -3.36,-28.05 0,-18.98 2.7,-37.01 8.11,-54.1 1.31,-4.2 3.47,-7.29 6.46,-9.25 2.99,-1.99 7.18,-2.99 12.56,-2.99 2.92,0 4.97,0.36 6.15,1.08 1.16,0.72 1.76,2.12 1.76,4.19 0,2.35 -1.11,7.59 -3.31,15.76 -1.44,5.82 -2.62,10.94 -3.51,15.35 -0.87,4.38 -1.59,9.77 -2.17,16.17 4.82,-12.53 10.23,-22.75 16.22,-30.64 5.99,-7.88 11.86,-13.5 17.62,-16.85 5.75,-3.37 11.03,-5.06 15.87,-5.06 9.5,0 14.26,4.75 14.26,14.26 0,1.9 -0.66,6.49 -1.97,13.79 -1.18,5.82 -1.76,9.45 -1.76,10.9 0,5.14 1.83,7.7 5.48,7.7 4.05,0 9.31,-3.21 15.76,-9.66 1.89,-1.89 3.85,-2.84 5.89,-2.84 1.89,0 3.38,0.85 4.49,2.53 1.1,1.7 1.65,3.92 1.65,6.66 0,5.41 -1.47,9.65 -4.39,12.71 -4.11,4.24 -8.89,7.85 -14.37,10.85 -5.45,3 -11.24,4.5 -17.36,4.5 -7.75,0 -13.64,-1.96 -17.67,-5.89 -4.01,-3.95 -5.99,-9.3 -5.99,-16.02 0,-2.19 0.22,-4.4 0.67,-6.56 0.27,-2.92 0.42,-4.91 0.42,-5.94 0,-2.3 -0.82,-3.47 -2.43,-3.47 -2.17,0 -5.05,2.45 -8.63,7.34 -3.59,4.85 -7.13,11.31 -10.64,19.37 -3.49,8.03 -6.33,16.48 -8.52,25.37 -1.59,6.86 -3.45,11.5 -5.58,13.9 -2.11,2.41 -5.42,3.62 -9.97,3.62zm0 0z"/>
   <path fill="#FEFEFE" fill-rule="nonzero" d="M277.47 206.93c-6.58,0 -11.96,-3.02 -16.12,-9.1 -4.17,-6.06 -6.25,-13.6 -6.25,-22.63 0,-10.96 0.72,-20.99 2.17,-30.12 1.47,-9.12 3.9,-18.8 7.29,-29.04 1.44,-4.37 3.47,-7.51 6.1,-9.41 2.65,-1.88 6.81,-2.84 12.5,-2.84 3.2,0 5.43,0.51 6.66,1.54 1.24,1.01 1.86,2.54 1.86,4.6 0,1.18 -0.8,5.11 -2.38,11.83 -1.48,5.37 -2.66,10.27 -3.51,14.68 -2.93,15.33 -4.39,25.55 -4.39,30.64 0,3.08 0.36,5.22 1.09,6.46 0.72,1.24 1.89,1.86 3.51,1.86 2.19,0 4.94,-2.18 8.21,-6.56 3.27,-4.37 6.77,-11.01 10.49,-19.89 3.72,-8.91 7.33,-19.89 10.85,-32.91 1.16,-4.37 2.96,-7.51 5.37,-9.41 2.41,-1.88 6.02,-2.84 10.85,-2.84 3.33,0 5.65,0.41 6.97,1.24 1.31,0.8 1.96,2.28 1.96,4.44 0,3.66 -1.8,13.66 -5.42,30.02 -4.11,18.67 -6.15,30.2 -6.15,34.56 0,2.8 0.58,4.96 1.76,6.51 1.16,1.52 2.7,2.27 4.6,2.27 2.92,0 6.38,-1.78 10.38,-5.37 4.03,-3.57 9.41,-9.38 16.12,-17.41 1.72,-2.03 3.68,-3.05 5.89,-3.05 1.89,0 3.38,0.88 4.5,2.64 1.09,1.76 1.65,4.17 1.65,7.23 0,5.82 -1.4,10.34 -4.19,13.53 -6.27,7.75 -13.01,14.11 -20.25,19.06 -7.23,4.96 -15.45,7.44 -24.64,7.44 -7,0 -12.14,-2.69 -15.45,-8.06 -3.28,-5.4 -4.91,-12.99 -4.91,-22.79 -2.48,9.93 -6.2,17.55 -11.16,22.89 -4.96,5.3 -10.28,7.96 -15.97,7.96zm0 0z"/>
   <path fill="#FEFEFE" fill-rule="nonzero" d="M453.97 157.02c1.89,0 3.37,0.88 4.44,2.64 1.1,1.76 1.65,4.17 1.65,7.23 0,5.82 -1.38,10.34 -4.13,13.53 -5.41,6.59 -13.05,12.65 -22.89,18.19 -9.86,5.55 -20.41,8.32 -31.67,8.32 -15.33,0 -27.23,-4.15 -35.7,-12.45 -8.45,-8.33 -12.66,-19.73 -12.66,-34.2 0,-10.05 2.12,-19.43 6.35,-28.11 4.24,-8.67 10.1,-15.56 17.62,-20.66 7.51,-5.13 16.02,-7.7 25.52,-7.7 8.43,0 15.2,2.53 20.3,7.59 5.13,5.04 7.7,11.86 7.7,20.46 0,10.06 -3.62,18.7 -10.85,25.93 -7.2,7.24 -19.43,12.96 -36.68,17.16 3.64,6.72 10.59,10.08 20.82,10.08 6.58,0 14.05,-2.29 22.42,-6.87 8.4,-4.61 15.67,-10.65 21.81,-18.09 1.76,-2.03 3.73,-3.05 5.94,-3.05zm-55.18 -31.77c-5.41,0 -9.97,3.15 -13.69,9.45 -3.73,6.27 -5.58,13.85 -5.58,22.73l0 0.47c8.61,-2.03 15.4,-5.09 20.36,-9.2 4.96,-4.09 7.44,-8.85 7.44,-14.26 0,-2.75 -0.78,-4.98 -2.32,-6.66 -1.52,-1.68 -3.6,-2.53 -6.2,-2.53zm0 0z"/>
   <path fill="#FEFEFE" fill-rule="nonzero" d="M499.26 206.93c-8.44,0 -18,-0.72 -28.67,-2.17 -5.82,-0.72 -9.84,-2.25 -12.04,-4.59 -2.21,-2.34 -3.15,-6.15 -2.84,-11.42 1.04,-14.43 3.44,-32.25 7.24,-53.47 3.78,-21.25 8.38,-41.75 13.79,-61.49 0.99,-3.62 3.02,-6.15 6.1,-7.59 3.06,-1.47 7.09,-2.22 12.09,-2.22 8.89,0 13.33,2.48 13.33,7.44 0,2.04 -0.44,4.37 -1.29,6.98 -3.83,11.72 -7.64,27.38 -11.42,47.01 -3.79,19.63 -6.49,38.37 -8.11,56.16 4.4,0.42 9.37,0.62 14.93,0.62 25.52,0 44.59,-7.72 57.19,-23.2 12.64,-15.46 18.96,-36.11 18.96,-61.95 0,-17.38 -4.96,-30.81 -14.87,-40.3 -9.93,-9.51 -23.92,-14.26 -42.01,-14.26 -11.67,0 -23.25,1.83 -34.72,5.48 -11.47,3.66 -21.81,8.47 -31,14.46 -1.9,1.32 -3.93,1.96 -6.1,1.96 -2.52,0 -4.5,-1.05 -5.94,-3.15 -1.45,-2.13 -2.17,-4.72 -2.17,-7.8 0,-3.47 0.58,-6.36 1.76,-8.63 1.16,-2.28 3.12,-4.35 5.89,-6.25 10.05,-6.84 21.87,-12.06 35.44,-15.65 13.6,-3.58 26.67,-5.37 39.22,-5.37 17.8,0 33.2,3.12 46.19,9.35 13.01,6.2 23.02,15.29 30.01,27.28 6.99,11.96 10.49,26.38 10.49,43.3 0,22.05 -4.37,41.28 -13.12,57.71 -8.76,16.43 -21.54,29.18 -38.34,38.23 -16.78,9.03 -36.77,13.54 -59.99,13.54zm0 0z"/>
   <path fill="#FEFEFE" fill-rule="nonzero" d="M652.36 206.93c-9.06,0 -16.3,-3.27 -21.7,-9.82 -5.41,-6.58 -8.11,-15.21 -8.11,-25.89 0,-11.68 2.7,-22.73 8.11,-33.17 5.4,-10.44 12.58,-18.82 21.55,-25.16 9,-6.33 18.52,-9.51 28.63,-9.51 3.21,0 5.33,0.62 6.4,1.86 1.1,1.24 2.03,3.47 2.79,6.66 3.06,-0.58 6.27,-0.87 9.61,-0.87 7.16,0 10.75,2.56 10.75,7.65 0,3.07 -1.11,10.37 -3.3,21.9 -3.35,16.78 -5.01,28.46 -5.01,35.03 0,2.21 0.53,3.96 1.6,5.27 1.09,1.32 2.53,1.96 4.29,1.96 2.79,0 6.15,-1.78 10.08,-5.37 3.95,-3.57 9.28,-9.38 15.97,-17.41 1.76,-2.03 3.73,-3.05 5.94,-3.05 1.89,0 3.38,0.88 4.5,2.64 1.09,1.76 1.65,4.17 1.65,7.23 0,5.82 -1.39,10.34 -4.18,13.53 -5.99,7.48 -12.34,13.77 -19.06,18.86 -6.72,5.1 -13.21,7.65 -19.47,7.65 -4.83,0 -9.26,-1.63 -13.28,-4.91 -4.01,-3.31 -7.01,-7.81 -9.04,-13.49 -7.58,12.27 -17.14,18.39 -28.67,18.39zm7.85 -22.11c3.23,0 6.3,-1.89 9.19,-5.69 2.92,-3.78 5.04,-8.81 6.36,-15.09l8.11 -40.3c-6.14,0.14 -11.8,2.45 -17,6.92 -5.17,4.44 -9.29,10.32 -12.34,17.62 -3.08,7.27 -4.6,15 -4.6,23.19 0,4.53 0.9,7.88 2.74,10.08 1.82,2.17 4.33,3.26 7.54,3.26zm0 0z"/>
   <path fill="#FEFEFE" fill-rule="nonzero" d="M757.04 89.33c-6.14,0 -10.74,-1.41 -13.79,-4.24 -3.08,-2.85 -4.6,-6.83 -4.6,-11.93 0,-5.13 1.99,-9.4 5.99,-12.81 4.03,-3.44 9.02,-5.17 14.98,-5.17 5.4,0 9.77,1.33 13.12,3.98 3.37,2.62 5.06,6.34 5.06,11.16 0,5.82 -1.89,10.46 -5.68,13.9 -3.8,3.41 -8.82,5.11 -15.09,5.11zm-1.76 117.6c-9.51,0 -16.42,-3.36 -20.72,-10.08 -4.31,-6.72 -6.46,-15.62 -6.46,-26.71 0,-6.58 0.84,-15 2.53,-25.26 1.68,-10.29 3.83,-19.9 6.46,-28.83 1.31,-4.65 3.05,-7.85 5.22,-9.61 2.19,-1.76 5.71,-2.63 10.53,-2.63 7.44,0 11.16,2.47 11.16,7.44 0,3.66 -1.38,12.13 -4.14,25.42 -3.51,16.06 -5.27,26.92 -5.27,32.6 0,4.38 0.58,7.74 1.76,10.08 1.16,2.35 3.13,3.51 5.89,3.51 2.65,0 5.94,-1.82 9.87,-5.48 3.92,-3.64 9.17,-9.41 15.76,-17.31 1.76,-2.03 3.73,-3.05 5.94,-3.05 1.89,0 3.38,0.88 4.45,2.64 1.09,1.76 1.65,4.17 1.65,7.23 0,5.82 -1.38,10.34 -4.13,13.53 -14.47,17.67 -27.98,26.51 -40.51,26.51zm0 0z"/>
   <path fill="#FEFEFE" fill-rule="nonzero" d="M865.21 157.02c1.89,0 3.37,0.88 4.44,2.64 1.09,1.76 1.65,4.17 1.65,7.23 0,5.82 -1.38,10.34 -4.13,13.53 -6.28,7.75 -13.11,14.11 -20.51,19.06 -7.38,4.96 -15.74,7.44 -25.06,7.44 -12.85,0 -22.37,-5.84 -28.57,-17.52 -6.2,-11.67 -9.3,-26.77 -9.3,-45.31 0,-17.79 2.28,-38.09 6.87,-60.86 4.61,-22.76 11.39,-42.33 20.36,-58.69 8.99,-16.36 19.7,-24.55 32.14,-24.55 6.99,0 12.47,3.26 16.48,9.77 4.03,6.49 6.04,15.78 6.04,27.9 0,17.4 -4.83,37.55 -14.46,60.45 -9.61,22.91 -22.67,45.61 -39.17,68.1 1,5.99 2.66,10.27 5.01,12.81 2.34,2.56 5.4,3.82 9.2,3.82 5.99,0 11.24,-1.7 15.76,-5.11 4.55,-3.43 10.31,-9.32 17.31,-17.67 1.76,-2.03 3.73,-3.05 5.95,-3.05zm-26.97 -135.32c-3.34,0 -7.13,6.07 -11.37,18.19 -4.24,12.09 -7.96,27.12 -11.16,45.1 -3.2,17.96 -4.96,35.18 -5.27,51.67 10.36,-17.08 18.61,-34.2 24.75,-51.35 6.12,-17.16 9.19,-32.81 9.19,-46.97 0,-11.08 -2.05,-16.64 -6.15,-16.64zm0 0z"/>
   <path fill="#FEFEFE" fill-rule="nonzero" d="M965.69 157.43c1.89,0 3.38,0.92 4.49,2.74 1.1,1.84 1.65,4.14 1.65,6.92 0,3.34 -0.51,5.98 -1.55,7.91 -1,1.89 -2.6,3.56 -4.81,5.01l-42.05 28.26c-5.56,30.2 -12.82,53.95 -21.81,71.25 -8.96,17.28 -20.38,25.93 -34.25,25.93 -7.44,0 -13.51,-2.31 -18.19,-6.92 -4.65,-4.59 -6.98,-10.59 -6.98,-18.03 0,-6.86 1.57,-13.87 4.7,-21.03 3.13,-7.13 8.97,-15.35 17.52,-24.65 8.54,-9.27 20.63,-19.88 36.27,-31.83l0.62 -5.06c1.03,-5.38 2.19,-13.1 3.51,-23.2 -2.93,10.51 -7.03,18.5 -12.3,23.97 -5.25,5.48 -10.77,8.22 -16.59,8.22 -6.58,0 -11.96,-3.02 -16.12,-9.1 -4.17,-6.06 -6.25,-13.6 -6.25,-22.63 0,-10.96 0.72,-20.99 2.17,-30.12 1.47,-9.12 3.9,-18.8 7.29,-29.04 1.44,-4.37 3.47,-7.51 6.1,-9.41 2.65,-1.88 6.81,-2.84 12.5,-2.84 3.2,0 5.42,0.51 6.66,1.54 1.24,1.01 1.86,2.54 1.86,4.6 0,1.18 -0.8,5.11 -2.38,11.83 -1.48,5.37 -2.66,10.27 -3.51,14.68 -1.18,5.97 -2.21,11.67 -3.1,17.15 -0.87,5.48 -1.29,9.97 -1.29,13.49 0,5.56 1.52,8.32 4.59,8.32 2.2,0 4.94,-2.18 8.22,-6.56 3.27,-4.37 6.77,-11.01 10.49,-19.89 3.72,-8.91 7.33,-19.89 10.85,-32.91 1.16,-4.37 2.96,-7.51 5.37,-9.41 2.41,-1.88 6.02,-2.84 10.85,-2.84 3.34,0 5.66,0.45 6.98,1.34 1.31,0.87 1.96,2.31 1.96,4.34 0,3.66 -1.9,16.21 -5.68,37.66l-5.69 35.29c11.22,-8.48 22.18,-16.22 32.86,-23.25 1.89,-1.17 3.57,-1.76 5.02,-1.76zm-95.89 126.8c3.64,0 7.72,-4.24 12.24,-12.71 4.55,-8.45 9.07,-22.52 13.59,-42.26 -11.24,9.51 -19.37,18.15 -24.44,25.93 -5.04,7.82 -7.55,14.65 -7.55,20.51 0,2.48 0.46,4.51 1.39,6.1 0.96,1.61 2.55,2.43 4.76,2.43zm0 0z"/>
   <path fill="#20665D" fill-rule="nonzero" fill-opacity="0.400000" d="M414.07 319.18c1.78,0 3.08,0.4 3.88,1.19 0.83,0.76 1.24,1.76 1.24,2.99 0,2.04 -0.61,3.82 -1.81,5.37 -1.21,1.55 -3.1,2.37 -5.68,2.43 -6.2,0.18 -11.72,-0.28 -16.54,-1.39 -5.56,11.61 -12.23,21.27 -20.05,28.93 -7.83,7.65 -15.65,11.47 -23.51,11.47 -8.13,0 -14.18,-4.7 -18.13,-14.1 -3.96,-9.43 -5.94,-22.17 -5.94,-38.18 0,-13.71 0.96,-26 2.89,-36.89 0.72,-4.05 1.72,-6.79 2.99,-8.22 1.27,-1.45 3.48,-2.17 6.62,-2.17 5.13,0 7.7,2.21 7.7,6.61 0,0.49 -0.09,1.35 -0.26,2.58 -2.31,14.03 -3.46,26.71 -3.46,38.08 0,11.92 0.98,20.98 2.95,27.18 1.99,6.17 4.97,9.25 8.93,9.25 4.06,0 8.45,-2.79 13.18,-8.37 4.75,-5.61 9.12,-12.67 13.12,-21.18 -4.76,-2.96 -8.35,-6.78 -10.75,-11.47 -2.42,-4.72 -3.62,-10.15 -3.62,-16.32 0,-6.12 0.94,-11.32 2.84,-15.56 1.89,-4.26 4.5,-7.45 7.81,-9.56 3.33,-2.09 7.03,-3.15 11.05,-3.15 4.99,0 8.94,1.8 11.83,5.37 2.92,3.59 4.4,8.5 4.4,14.72 0,8.97 -1.95,18.73 -5.84,29.3 4.14,0.72 8.85,1.09 14.16,1.09zm-34.46 -23.04c0,7.64 2.44,13.3 7.33,16.95 3.02,-8.71 4.55,-15.91 4.55,-21.6 0,-3.27 -0.44,-5.65 -1.29,-7.18 -0.83,-1.51 -1.99,-2.28 -3.46,-2.28 -2.11,0 -3.82,1.23 -5.17,3.67 -1.32,2.45 -1.96,5.93 -1.96,10.44zm0 0z"/>
   <path fill="#20665D" fill-rule="nonzero" fill-opacity="0.400000" d="M423.17 307.5c-3.28,0 -5.73,-0.75 -7.39,-2.28 -1.63,-1.51 -2.43,-3.64 -2.43,-6.4 0,-2.71 1.06,-4.99 3.21,-6.82 2.13,-1.82 4.81,-2.74 8,-2.74 2.86,0 5.18,0.71 6.98,2.12 1.78,1.38 2.69,3.36 2.69,5.94 0,3.1 -1.03,5.58 -3.05,7.44 -2,1.83 -4.68,2.74 -8.01,2.74zm-0.98 62.67c-5.04,0 -8.71,-1.78 -11.01,-5.37 -2.32,-3.57 -3.47,-8.32 -3.47,-14.21 0,-3.51 0.44,-8 1.35,-13.48 0.89,-5.5 2.04,-10.64 3.46,-15.4 0.68,-2.48 1.61,-4.18 2.79,-5.11 1.16,-0.93 3.05,-1.39 5.63,-1.39 3.96,0 5.95,1.33 5.95,3.98 0,1.93 -0.75,6.45 -2.22,13.53 -1.87,8.55 -2.8,14.35 -2.8,17.41 0,2.32 0.31,4.11 0.93,5.38 0.62,1.24 1.67,1.86 3.15,1.86 1.37,0 3.12,-0.96 5.22,-2.9 2.09,-1.96 4.91,-5.04 8.42,-9.25 0.93,-1.09 1.98,-1.65 3.15,-1.65 1.03,0 1.82,0.46 2.38,1.4 0.58,0.93 0.87,2.22 0.87,3.87 0,3.1 -0.72,5.52 -2.17,7.24 -7.72,9.4 -14.94,14.1 -21.65,14.1zm0 0z"/>
   <path fill="#20665D" fill-rule="nonzero" fill-opacity="0.400000" d="M480.83 343.56c0.99,0 1.78,0.46 2.38,1.4 0.58,0.93 0.87,2.22 0.87,3.87 0,3.1 -0.75,5.52 -2.22,7.24 -3.34,4.13 -6.97,7.53 -10.9,10.18 -3.92,2.62 -8.39,3.92 -13.38,3.92 -6.86,0 -11.94,-3.1 -15.24,-9.3 -3.31,-6.23 -4.96,-14.29 -4.96,-24.18 0,-9.51 1.22,-20.32 3.67,-32.45 2.48,-12.15 6.11,-22.59 10.9,-31.31 4.78,-8.71 10.49,-13.08 17.1,-13.08 3.72,0 6.64,1.75 8.78,5.22 2.17,3.45 3.25,8.39 3.25,14.83 0,9.28 -2.58,20.02 -7.75,32.24 -5.14,12.23 -12.09,24.33 -20.88,36.32 0.55,3.2 1.45,5.5 2.69,6.87 1.24,1.34 2.87,2.02 4.91,2.02 3.16,0 5.96,-0.91 8.37,-2.74 2.44,-1.86 5.53,-4.98 9.25,-9.41 0.93,-1.09 1.98,-1.65 3.15,-1.65zm-14.36 -72.18c-1.8,0 -3.83,3.24 -6.1,9.71 -2.25,6.49 -4.22,14.5 -5.95,24.07 -1.69,9.55 -2.62,18.73 -2.79,27.54 5.5,-9.12 9.9,-18.25 13.18,-27.38 3.27,-9.16 4.91,-17.51 4.91,-25.06 0,-5.91 -1.09,-8.89 -3.25,-8.89zm0 0z"/>
   <path fill="#20665D" fill-rule="nonzero" fill-opacity="0.400000" d="M518.89 343.56c1,0 1.78,0.46 2.38,1.4 0.58,0.93 0.87,2.22 0.87,3.87 0,3.1 -0.75,5.52 -2.22,7.24 -3.34,4.13 -6.97,7.53 -10.9,10.18 -3.93,2.62 -8.4,3.92 -13.38,3.92 -6.86,0 -11.93,-3.1 -15.24,-9.3 -3.31,-6.23 -4.96,-14.29 -4.96,-24.18 0,-9.51 1.22,-20.32 3.67,-32.45 2.48,-12.15 6.11,-22.59 10.9,-31.31 4.78,-8.71 10.49,-13.08 17.1,-13.08 3.72,0 6.64,1.75 8.78,5.22 2.17,3.45 3.25,8.39 3.25,14.83 0,9.28 -2.58,20.02 -7.75,32.24 -5.14,12.23 -12.09,24.33 -20.87,36.32 0.54,3.2 1.44,5.5 2.69,6.87 1.24,1.34 2.86,2.02 4.91,2.02 3.16,0 5.95,-0.91 8.37,-2.74 2.44,-1.86 5.53,-4.98 9.25,-9.41 0.93,-1.09 1.98,-1.65 3.15,-1.65zm-14.36 -72.18c-1.8,0 -3.82,3.24 -6.1,9.71 -2.25,6.49 -4.22,14.5 -5.94,24.07 -1.7,9.55 -2.62,18.73 -2.79,27.54 5.5,-9.12 9.89,-18.25 13.17,-27.38 3.27,-9.16 4.91,-17.51 4.91,-25.06 0,-5.91 -1.09,-8.89 -3.25,-8.89zm0 0z"/>
   <path fill="#20665D" fill-rule="nonzero" fill-opacity="0.400000" d="M527.04 370.17c-4.83,0 -8.68,-1.73 -11.57,-5.22 -2.87,-3.51 -4.29,-8.11 -4.29,-13.79 0,-6.23 1.41,-12.12 4.29,-17.68 2.89,-5.58 6.73,-10.05 11.52,-13.43 4.78,-3.41 9.87,-5.11 15.24,-5.11 1.72,0 2.87,0.35 3.47,1.03 0.58,0.66 1.06,1.84 1.44,3.51 1.65,-0.31 3.38,-0.46 5.17,-0.46 3.79,0 5.69,1.38 5.69,4.14 0,1.63 -0.59,5.52 -1.76,11.67 -1.8,8.93 -2.69,15.14 -2.69,18.65 0,1.18 0.28,2.12 0.87,2.84 0.58,0.7 1.35,1.04 2.28,1.04 1.47,0 3.27,-0.94 5.37,-2.84 2.09,-1.93 4.94,-5.02 8.52,-9.3 0.96,-1.09 2.02,-1.65 3.15,-1.65 1.03,0 1.83,0.46 2.43,1.4 0.58,0.93 0.88,2.22 0.88,3.87 0,3.1 -0.75,5.52 -2.22,7.24 -3.21,3.96 -6.6,7.31 -10.18,10.02 -3.6,2.73 -7.05,4.08 -10.39,4.08 -2.58,0 -4.94,-0.85 -7.07,-2.58 -2.15,-1.76 -3.75,-4.16 -4.81,-7.23 -4.07,6.55 -9.19,9.82 -15.35,9.82zm4.24 -11.78c1.72,0 3.36,-1 4.91,-3 1.55,-2.02 2.66,-4.72 3.36,-8.11l4.34 -21.44c-3.28,0.08 -6.29,1.29 -9.04,3.67 -2.76,2.37 -4.96,5.51 -6.61,9.4 -1.63,3.9 -2.43,8.01 -2.43,12.35 0,2.41 0.48,4.21 1.44,5.37 0.96,1.18 2.3,1.76 4.03,1.76zm0 0z"/>
   <path fill="#20665D" fill-rule="nonzero" fill-opacity="0.400000" d="M627.38 343.82c0.99,0 1.78,0.49 2.37,1.45 0.58,0.97 0.88,2.19 0.88,3.67 0,1.79 -0.29,3.2 -0.83,4.23 -0.55,1.01 -1.42,1.89 -2.58,2.64 -6.69,4.52 -11.57,7.88 -14.68,10.08l-7.49 5.01c-2.97,16.12 -6.84,28.78 -11.62,37.98 -4.79,9.22 -10.89,13.84 -18.29,13.84 -3.96,0 -7.21,-1.22 -9.71,-3.66 -2.48,-2.45 -3.73,-5.66 -3.73,-9.61 0,-5.56 2.19,-11.5 6.57,-17.83 4.36,-6.34 12.55,-14.14 24.54,-23.4l0.67 -4.55c-1.32,2.11 -3.05,3.72 -5.22,4.85 -2.15,1.1 -4.27,1.65 -6.36,1.65 -4.83,0 -8.68,-1.73 -11.57,-5.22 -2.87,-3.51 -4.29,-8.11 -4.29,-13.79 0,-6.23 1.41,-12.12 4.29,-17.68 2.89,-5.58 6.73,-10.05 11.52,-13.43 4.78,-3.41 9.87,-5.11 15.24,-5.11 1.72,0 2.87,0.35 3.47,1.03 0.58,0.66 1.06,1.84 1.44,3.51 1.48,-0.31 3.21,-0.46 5.17,-0.46 1.93,0 3.31,0.3 4.14,0.88 0.83,0.59 1.24,1.74 1.24,3.46 0,0.93 -0.05,1.68 -0.15,2.22 -0.31,2.41 -1.29,8.52 -2.9,18.34 -0.31,1.86 -0.66,3.92 -1.03,6.15 -0.35,2.21 -0.71,4.55 -1.09,7.03 5.99,-4.65 11.76,-8.76 17.31,-12.35 0.99,-0.62 1.88,-0.93 2.69,-0.93zm-41.23 14.57c1.78,0 3.49,-1.09 5.11,-3.25 1.65,-2.2 2.82,-5.32 3.51,-9.36l3.72 -19.94c-3.18,0.08 -6.12,1.29 -8.83,3.67 -2.73,2.37 -4.91,5.51 -6.56,9.4 -1.63,3.9 -2.43,8.01 -2.43,12.35 0,2.41 0.47,4.21 1.44,5.37 0.96,1.18 2.3,1.76 4.03,1.76zm-9.71 53.01c1.96,0 4.16,-2.35 6.61,-7.03 2.44,-4.65 4.81,-12.08 7.08,-22.27 -5.99,5.13 -10.32,9.77 -12.97,13.9 -2.67,4.14 -3.98,7.75 -3.98,10.85 0,1.31 0.23,2.39 0.72,3.25 0.52,0.85 1.36,1.29 2.54,1.29zm0 0z"/>
   <path fill="#20665D" fill-rule="nonzero" fill-opacity="0.400000" d="M675.55 343.56c1.04,0 1.84,0.46 2.43,1.4 0.58,0.93 0.87,2.22 0.87,3.87 0,3.1 -0.75,5.52 -2.22,7.24 -2.89,3.51 -6.97,6.75 -12.24,9.71 -5.24,2.93 -10.85,4.39 -16.84,4.39 -8.17,0 -14.5,-2.19 -19.02,-6.61 -4.52,-4.44 -6.77,-10.51 -6.77,-18.24 0,-5.37 1.11,-10.36 3.36,-14.98 2.28,-4.65 5.4,-8.33 9.41,-11.05 3.99,-2.71 8.52,-4.08 13.59,-4.08 4.5,0 8.12,1.34 10.85,4.03 2.75,2.69 4.14,6.33 4.14,10.9 0,5.37 -1.94,10 -5.79,13.85 -3.86,3.86 -10.38,6.91 -19.58,9.15 1.97,3.59 5.66,5.37 11.11,5.37 3.51,0 7.49,-1.22 11.93,-3.67 4.47,-2.44 8.34,-5.65 11.62,-9.61 0.96,-1.09 2.02,-1.65 3.15,-1.65zm-29.39 -16.95c-2.9,0 -5.35,1.7 -7.34,5.07 -1.96,3.34 -2.95,7.39 -2.95,12.14l0 0.21c4.57,-1.09 8.19,-2.73 10.85,-4.91 2.65,-2.17 3.98,-4.7 3.98,-7.59 0,-1.47 -0.42,-2.66 -1.24,-3.56 -0.8,-0.9 -1.9,-1.35 -3.3,-1.35zm0 0z"/>
   <path fill="#20665D" fill-rule="nonzero" fill-opacity="0.400000" d="M798.31 272.78c2.17,0.35 3.64,1.02 4.44,2.02 0.83,1 1.24,2.32 1.24,3.98 0,5.37 -2.88,7.85 -8.63,7.44l-4.08 -0.31c-4.59,-0.41 -9.17,-0.72 -13.74,-0.93 -4.55,-0.23 -9.3,-0.36 -14.27,-0.36l-5.27 0c-0.93,11.51 -1.91,22.01 -2.94,31.52l20.1 -0.36c2.89,0 4.82,0.52 5.78,1.55 0.96,1 1.45,2.36 1.45,4.08 0,2.62 -0.77,4.7 -2.32,6.25 -1.55,1.52 -3.77,2.28 -6.66,2.28l-19.95 0 -0.72 5.01c-1.63,12.85 -5.1,22 -10.43,27.44 -5.35,5.45 -12.69,8.16 -22.01,8.16 -5.31,0 -10.18,-1.13 -14.62,-3.41 -4.42,-2.3 -7.68,-5.09 -9.77,-8.37 -0.87,-1.35 -1.29,-2.95 -1.29,-4.81 0,-1.86 0.44,-3.48 1.34,-4.86 0.9,-1.41 1.99,-2.12 3.31,-2.12 0.93,0 1.83,0.31 2.74,0.93 0.89,0.62 2.04,1.84 3.46,3.62 3.72,4.89 8.35,7.33 13.9,7.33 4.44,0 8.16,-1.81 11.16,-5.43 3,-3.62 4.92,-9.31 5.79,-17.1l0.67 -6.4 -5.58 0c-1.8,0 -3.35,-0.49 -4.65,-1.5 -1.28,-1.03 -1.91,-2.48 -1.91,-4.34 0,-2.41 0.62,-4.25 1.86,-5.53 1.24,-1.31 3.06,-1.96 5.48,-1.96 2.19,0 4.35,-0.03 6.46,-0.1 0.93,-8.58 1.93,-18.98 3.05,-31.21 -8.45,0.8 -14.36,2.17 -17.77,4.14 -3.41,1.94 -5.12,4.81 -5.12,8.63 0,2.62 0.78,5.15 2.33,7.59 0.44,0.7 0.67,1.39 0.67,2.07 0,1.42 -0.78,2.66 -2.32,3.72 -1.55,1.03 -3.31,1.55 -5.27,1.55 -2.11,0 -3.9,-0.62 -5.37,-1.86 -0.93,-0.79 -1.84,-2.39 -2.69,-4.81 -0.83,-2.41 -1.24,-5.09 -1.24,-8.07 0,-9.63 4.96,-16.63 14.88,-20.97 9.92,-4.37 24.41,-6.56 43.5,-6.56 13.23,0 24.91,0.7 35.03,2.06zm0 0z"/>
   <path fill="#20665D" fill-rule="nonzero" fill-opacity="0.400000" d="M843 333.74c0.99,0 1.77,0.52 2.32,1.55 0.54,1 0.83,2.28 0.83,3.82 0,3.76 -1.12,5.98 -3.36,6.66 -4.69,1.63 -9.84,2.56 -15.45,2.8 -1.49,6.55 -4.42,11.78 -8.78,15.71 -4.34,3.92 -9.28,5.89 -14.78,5.89 -4.69,0 -8.68,-1.11 -11.99,-3.36 -3.3,-2.28 -5.82,-5.27 -7.54,-8.99 -1.7,-3.75 -2.54,-7.81 -2.54,-12.15 0,-5.91 1.11,-11.18 3.36,-15.81 2.27,-4.65 5.39,-8.26 9.35,-10.85 3.95,-2.61 8.34,-3.92 13.17,-3.92 5.92,0 10.7,2.05 14.31,6.15 3.62,4.07 5.73,9.09 6.36,15.09 3.68,-0.23 8.03,-1 13.07,-2.32 0.65,-0.16 1.2,-0.26 1.65,-0.26zm-38.29 24.08c2.48,0 4.62,-1.01 6.46,-3.05 1.82,-2.03 3.05,-4.96 3.66,-8.78 -2.41,-1.61 -4.26,-3.75 -5.52,-6.4 -1.28,-2.65 -1.91,-5.45 -1.91,-8.43 0,-1.24 0.12,-2.47 0.36,-3.72l-0.62 0c-3.1,0 -5.68,1.5 -7.75,4.5 -2.06,2.99 -3.1,7.22 -3.1,12.66 0,4.31 0.83,7.59 2.48,9.86 1.67,2.25 3.66,3.36 5.94,3.36zm0 0z"/>
   <path fill="#20665D" fill-rule="nonzero" fill-opacity="0.400000" d="M895.65 333.74c1,0 1.77,0.52 2.32,1.55 0.55,1 0.83,2.28 0.83,3.82 0,3.76 -1.12,5.98 -3.36,6.66 -4.69,1.63 -9.84,2.56 -15.45,2.8 -1.48,6.55 -4.42,11.78 -8.78,15.71 -4.34,3.92 -9.28,5.89 -14.78,5.89 -4.69,0 -8.68,-1.11 -11.98,-3.36 -3.31,-2.28 -5.83,-5.27 -7.55,-8.99 -1.69,-3.75 -2.53,-7.81 -2.53,-12.15 0,-5.91 1.11,-11.18 3.36,-15.81 2.28,-4.65 5.39,-8.26 9.35,-10.85 3.95,-2.61 8.35,-3.92 13.18,-3.92 5.91,0 10.69,2.05 14.31,6.15 3.62,4.07 5.73,9.09 6.36,15.09 3.68,-0.23 8.03,-1 13.07,-2.32 0.65,-0.16 1.2,-0.26 1.65,-0.26zm-38.29 24.08c2.48,0 4.63,-1.01 6.46,-3.05 1.83,-2.03 3.05,-4.96 3.67,-8.78 -2.42,-1.61 -4.27,-3.75 -5.53,-6.4 -1.28,-2.65 -1.91,-5.45 -1.91,-8.43 0,-1.24 0.12,-2.47 0.36,-3.72l-0.62 0c-3.1,0 -5.69,1.5 -7.75,4.5 -2.07,2.99 -3.1,7.22 -3.1,12.66 0,4.31 0.83,7.59 2.48,9.86 1.68,2.25 3.67,3.36 5.94,3.36zm0 0z"/>
   <path fill="#20665D" fill-rule="nonzero" fill-opacity="0.400000" d="M955.08 343.56c1.03,0 1.82,0.46 2.38,1.4 0.58,0.93 0.87,2.22 0.87,3.87 0,3.1 -0.75,5.52 -2.22,7.24 -3.18,3.9 -6.66,7.22 -10.49,9.97 -3.83,2.76 -7.6,4.13 -11.32,4.13 -5.93,0 -10.44,-3.46 -13.53,-10.38 -3.28,4.14 -6.15,6.91 -8.63,8.32 -2.45,1.38 -5.31,2.06 -8.58,2.06 -4.73,0 -8.63,-1.76 -11.73,-5.27 -3.08,-3.54 -4.6,-8.16 -4.6,-13.84 0,-6.23 1.32,-12.02 3.98,-17.36 2.65,-5.34 6.28,-9.69 10.9,-13.08 4.65,-3.37 9.84,-5.37 15.61,-5.99 1.47,-15.11 4.3,-28.02 8.48,-38.7 4.16,-10.7 9.62,-16.07 16.38,-16.07 3.37,0 6.16,1.52 8.37,4.55 2.19,3.03 3.31,7.61 3.31,13.74 0,8.76 -2.15,18.96 -6.4,30.64 -4.28,11.68 -10,23.66 -17.16,35.96 0.31,4.53 0.98,7.75 2.02,9.71 1.06,1.94 2.4,2.9 4.03,2.9 2.09,0 4.23,-0.93 6.4,-2.8 2.19,-1.88 5.13,-5.01 8.78,-9.35 0.93,-1.09 1.98,-1.65 3.15,-1.65zm-13.79 -72.28c-1.45,0 -2.92,2.63 -4.4,7.9 -1.48,5.25 -2.76,12.12 -3.82,20.62 -1.03,8.48 -1.8,17.35 -2.28,26.61 8.71,-19.02 13.08,-34.27 13.08,-45.78 0,-2.96 -0.26,-5.24 -0.78,-6.87 -0.49,-1.65 -1.08,-2.48 -1.8,-2.48zm-33.58 87.11c1.47,0 2.94,-0.59 4.39,-1.81 1.47,-1.2 3.36,-3.43 5.63,-6.71 -0.8,-4.2 -1.19,-8.9 -1.19,-14.11 0,-1.89 0.08,-4.94 0.26,-9.15 -4.28,1.35 -7.84,4.22 -10.7,8.63 -2.83,4.38 -4.24,9.26 -4.24,14.63 0,5.68 1.94,8.52 5.84,8.52zm0 0z"/>
   <path fill="#20665D" fill-rule="nonzero" fill-opacity="0.400000" d="M970.62 372.75c-4.07,0 -7.17,-0.93 -9.3,-2.79 -2.15,-1.86 -3.21,-3.95 -3.21,-6.3 0,-2.03 0.74,-3.79 2.22,-5.27 1.48,-1.48 3.67,-2.22 6.56,-2.22 1,0 2.17,0.1 3.51,0.31 1.37,0.18 2.41,0.31 3.1,0.42 -0.08,-2.03 -0.52,-3.94 -1.35,-5.73 -0.8,-1.78 -1.83,-3.51 -3.1,-5.17 -1.24,-1.68 -2.41,-3.15 -3.47,-4.4 -2.41,4.59 -4.81,8.4 -7.18,11.42 -2.37,3.03 -4.98,5.91 -7.8,8.63 -1.38,1.42 -2.86,2.12 -4.44,2.12 -1.24,0 -2.25,-0.44 -2.99,-1.35 -0.79,-0.89 -1.19,-1.99 -1.19,-3.3 0,-1.58 0.55,-3.03 1.65,-4.34l1.5 -1.86c4.26,-5.3 7.51,-9.67 9.71,-13.08 1.31,-2.27 2.86,-5.28 4.65,-9.04 1.78,-3.78 3.54,-7.71 5.27,-11.78 1.48,-3.41 4.55,-5.11 9.2,-5.11 2.19,0 3.72,0.21 4.55,0.62 0.85,0.38 1.29,0.98 1.29,1.8 0,0.49 -0.16,1.24 -0.46,2.28 -0.31,1 -0.75,2 -1.29,2.99 -1.39,2.83 -2.07,5.21 -2.07,7.13 0,1.18 0.39,2.47 1.19,3.88 0.83,1.38 2.09,3.12 3.83,5.22 2.47,3.28 4.35,6.08 5.63,8.37 1.31,2.31 1.97,4.83 1.97,7.55 0,0.76 -0.1,1.85 -0.26,3.25 3.82,-1.48 8.29,-5.4 13.43,-11.78 0.93,-1.09 1.98,-1.65 3.15,-1.65 1.03,0 1.84,0.46 2.43,1.4 0.58,0.93 0.87,2.22 0.87,3.87 0,2.97 -0.75,5.38 -2.22,7.24 -3.9,4.83 -7.62,8.11 -11.16,9.86 -3.55,1.76 -7.93,2.71 -13.12,2.84 -3.14,2.65 -6.84,3.98 -11.11,3.98zm0 0z"/>
   <path fill="#FEFEFE" fill-rule="nonzero" d="M409.42 314.53c1.78,0 3.08,0.4 3.88,1.19 0.83,0.76 1.24,1.76 1.24,2.99 0,2.04 -0.61,3.83 -1.8,5.38 -1.22,1.54 -3.1,2.36 -5.69,2.43 -6.2,0.18 -11.72,-0.29 -16.54,-1.39 -5.55,11.61 -12.23,21.26 -20.04,28.93 -7.83,7.65 -15.66,11.47 -23.51,11.47 -8.13,0 -14.18,-4.7 -18.13,-14.1 -3.96,-9.43 -5.94,-22.17 -5.94,-38.18 0,-13.71 0.96,-26 2.89,-36.89 0.72,-4.05 1.72,-6.79 3,-8.22 1.26,-1.44 3.47,-2.17 6.61,-2.17 5.13,0 7.7,2.21 7.7,6.62 0,0.49 -0.1,1.34 -0.26,2.58 -2.31,14.03 -3.47,26.71 -3.47,38.07 0,11.92 0.98,20.98 2.95,27.18 1.99,6.17 4.98,9.25 8.94,9.25 4.05,0 8.45,-2.79 13.17,-8.37 4.76,-5.61 9.12,-12.67 13.12,-21.18 -4.75,-2.95 -8.35,-6.78 -10.75,-11.47 -2.41,-4.71 -3.62,-10.15 -3.62,-16.32 0,-6.12 0.94,-11.31 2.84,-15.55 1.89,-4.27 4.49,-7.46 7.8,-9.56 3.34,-2.09 7.03,-3.15 11.05,-3.15 4.99,0 8.94,1.8 11.83,5.37 2.92,3.6 4.4,8.5 4.4,14.73 0,8.96 -1.95,18.73 -5.84,29.29 4.13,0.72 8.85,1.09 14.16,1.09zm-34.46 -23.04c0,7.65 2.44,13.3 7.34,16.95 3.02,-8.7 4.55,-15.91 4.55,-21.59 0,-3.27 -0.44,-5.66 -1.29,-7.18 -0.83,-1.51 -1.99,-2.28 -3.47,-2.28 -2.11,0 -3.82,1.23 -5.17,3.67 -1.31,2.45 -1.96,5.93 -1.96,10.44zm0 0z"/>
   <path fill="#FEFEFE" fill-rule="nonzero" d="M418.53 302.85c-3.28,0 -5.73,-0.75 -7.39,-2.28 -1.63,-1.51 -2.43,-3.64 -2.43,-6.4 0,-2.71 1.05,-4.98 3.2,-6.82 2.13,-1.82 4.81,-2.73 8.01,-2.73 2.85,0 5.17,0.71 6.97,2.12 1.78,1.38 2.69,3.36 2.69,5.94 0,3.1 -1.02,5.58 -3.05,7.44 -2,1.84 -4.68,2.74 -8,2.74zm-0.98 62.67c-5.04,0 -8.71,-1.78 -11.01,-5.37 -2.31,-3.57 -3.46,-8.32 -3.46,-14.2 0,-3.51 0.44,-8.01 1.34,-13.49 0.89,-5.5 2.04,-10.64 3.47,-15.4 0.68,-2.47 1.61,-4.18 2.79,-5.11 1.16,-0.93 3.05,-1.39 5.63,-1.39 3.95,0 5.94,1.33 5.94,3.98 0,1.94 -0.75,6.45 -2.22,13.53 -1.86,8.56 -2.79,14.35 -2.79,17.42 0,2.31 0.31,4.11 0.93,5.37 0.62,1.24 1.67,1.86 3.15,1.86 1.37,0 3.11,-0.96 5.22,-2.89 2.09,-1.96 4.91,-5.04 8.42,-9.25 0.93,-1.1 1.98,-1.65 3.15,-1.65 1.03,0 1.83,0.46 2.38,1.39 0.58,0.93 0.87,2.22 0.87,3.88 0,3.1 -0.72,5.52 -2.17,7.23 -7.72,9.41 -14.93,14.1 -21.65,14.1zm0 0z"/>
   <path fill="#FEFEFE" fill-rule="nonzero" d="M476.18 338.92c1,0 1.78,0.46 2.38,1.39 0.58,0.93 0.87,2.22 0.87,3.88 0,3.1 -0.75,5.52 -2.22,7.23 -3.34,4.14 -6.97,7.53 -10.9,10.18 -3.93,2.62 -8.4,3.92 -13.38,3.92 -6.86,0 -11.93,-3.1 -15.24,-9.3 -3.31,-6.23 -4.96,-14.29 -4.96,-24.18 0,-9.51 1.21,-20.32 3.66,-32.45 2.48,-12.15 6.11,-22.59 10.9,-31.31 4.78,-8.7 10.49,-13.07 17.1,-13.07 3.72,0 6.64,1.74 8.78,5.22 2.17,3.45 3.25,8.39 3.25,14.83 0,9.27 -2.58,20.02 -7.75,32.24 -5.14,12.24 -12.09,24.33 -20.87,36.32 0.54,3.21 1.44,5.5 2.69,6.87 1.24,1.35 2.86,2.02 4.91,2.02 3.16,0 5.95,-0.9 8.37,-2.74 2.44,-1.86 5.53,-4.98 9.25,-9.4 0.93,-1.1 1.98,-1.65 3.15,-1.65zm-14.36 -72.18c-1.8,0 -3.82,3.25 -6.1,9.71 -2.25,6.49 -4.22,14.51 -5.94,24.08 -1.7,9.54 -2.62,18.73 -2.79,27.53 5.5,-9.12 9.89,-18.25 13.17,-27.38 3.27,-9.15 4.91,-17.51 4.91,-25.05 0,-5.92 -1.09,-8.89 -3.25,-8.89zm0 0z"/>
   <path fill="#FEFEFE" fill-rule="nonzero" d="M514.25 338.92c0.99,0 1.78,0.46 2.37,1.39 0.58,0.93 0.88,2.22 0.88,3.88 0,3.1 -0.75,5.52 -2.22,7.23 -3.35,4.14 -6.98,7.53 -10.9,10.18 -3.93,2.62 -8.39,3.92 -13.38,3.92 -6.86,0 -11.93,-3.1 -15.24,-9.3 -3.3,-6.23 -4.96,-14.29 -4.96,-24.18 0,-9.51 1.21,-20.32 3.66,-32.45 2.48,-12.15 6.11,-22.59 10.9,-31.31 4.78,-8.7 10.49,-13.07 17.1,-13.07 3.72,0 6.64,1.74 8.78,5.22 2.17,3.45 3.25,8.39 3.25,14.83 0,9.27 -2.58,20.02 -7.74,32.24 -5.15,12.24 -12.09,24.33 -20.88,36.32 0.54,3.21 1.44,5.5 2.69,6.87 1.24,1.35 2.86,2.02 4.91,2.02 3.16,0 5.95,-0.9 8.37,-2.74 2.45,-1.86 5.53,-4.98 9.25,-9.4 0.94,-1.1 1.98,-1.65 3.16,-1.65zm-14.37 -72.18c-1.79,0 -3.82,3.25 -6.1,9.71 -2.24,6.49 -4.22,14.51 -5.94,24.08 -1.69,9.54 -2.62,18.73 -2.79,27.53 5.5,-9.12 9.89,-18.25 13.17,-27.38 3.27,-9.15 4.91,-17.51 4.91,-25.05 0,-5.92 -1.08,-8.89 -3.25,-8.89zm0 0z"/>
   <path fill="#FEFEFE" fill-rule="nonzero" d="M522.39 365.52c-4.83,0 -8.67,-1.73 -11.57,-5.22 -2.86,-3.51 -4.29,-8.11 -4.29,-13.79 0,-6.23 1.42,-12.11 4.29,-17.67 2.9,-5.58 6.73,-10.05 11.52,-13.43 4.78,-3.41 9.87,-5.12 15.24,-5.12 1.72,0 2.86,0.35 3.46,1.04 0.58,0.66 1.06,1.83 1.45,3.51 1.65,-0.31 3.37,-0.46 5.17,-0.46 3.78,0 5.68,1.39 5.68,4.14 0,1.63 -0.59,5.52 -1.76,11.67 -1.8,8.93 -2.69,15.14 -2.69,18.65 0,1.18 0.29,2.12 0.88,2.84 0.58,0.7 1.34,1.03 2.27,1.03 1.48,0 3.27,-0.94 5.37,-2.84 2.09,-1.92 4.94,-5.02 8.52,-9.3 0.96,-1.1 2.02,-1.65 3.15,-1.65 1.04,0 1.84,0.46 2.43,1.39 0.58,0.93 0.87,2.22 0.87,3.88 0,3.1 -0.75,5.52 -2.22,7.23 -3.2,3.96 -6.6,7.31 -10.18,10.02 -3.59,2.73 -7.05,4.08 -10.38,4.08 -2.58,0 -4.95,-0.85 -7.08,-2.58 -2.14,-1.76 -3.75,-4.16 -4.81,-7.24 -4.07,6.55 -9.18,9.82 -15.35,9.82zm4.24 -11.78c1.72,0 3.36,-0.99 4.91,-2.99 1.55,-2.03 2.67,-4.73 3.36,-8.11l4.34 -21.44c-3.28,0.08 -6.3,1.29 -9.04,3.67 -2.77,2.38 -4.96,5.52 -6.62,9.41 -1.63,3.9 -2.43,8 -2.43,12.34 0,2.41 0.48,4.21 1.45,5.37 0.95,1.18 2.3,1.76 4.03,1.76zm0 0z"/>
   <path fill="#FEFEFE" fill-rule="nonzero" d="M622.73 339.18c0.99,0 1.78,0.49 2.38,1.44 0.58,0.97 0.87,2.19 0.87,3.67 0,1.8 -0.28,3.21 -0.83,4.24 -0.55,1 -1.42,1.89 -2.58,2.63 -6.69,4.53 -11.57,7.88 -14.67,10.08l-7.49 5.01c-2.97,16.12 -6.85,28.78 -11.63,37.98 -4.79,9.22 -10.89,13.85 -18.29,13.85 -3.96,0 -7.2,-1.23 -9.71,-3.67 -2.48,-2.45 -3.72,-5.66 -3.72,-9.61 0,-5.55 2.18,-11.5 6.56,-17.83 4.37,-6.34 12.56,-14.14 24.54,-23.4l0.67 -4.55c-1.31,2.11 -3.04,3.72 -5.22,4.86 -2.15,1.09 -4.27,1.65 -6.36,1.65 -4.83,0 -8.68,-1.73 -11.57,-5.22 -2.86,-3.51 -4.29,-8.11 -4.29,-13.79 0,-6.23 1.42,-12.11 4.29,-17.67 2.89,-5.58 6.73,-10.05 11.52,-13.43 4.78,-3.41 9.87,-5.12 15.24,-5.12 1.72,0 2.86,0.35 3.46,1.04 0.58,0.66 1.06,1.83 1.45,3.51 1.47,-0.31 3.2,-0.46 5.16,-0.46 1.93,0 3.31,0.3 4.14,0.88 0.83,0.59 1.24,1.74 1.24,3.46 0,0.93 -0.05,1.68 -0.16,2.22 -0.31,2.42 -1.28,8.53 -2.89,18.35 -0.31,1.86 -0.66,3.91 -1.04,6.15 -0.35,2.21 -0.7,4.55 -1.08,7.03 5.99,-4.65 11.75,-8.76 17.31,-12.34 0.99,-0.62 1.89,-0.93 2.69,-0.93zm-41.23 14.57c1.78,0 3.49,-1.09 5.11,-3.25 1.65,-2.19 2.82,-5.32 3.51,-9.35l3.73 -19.95c-3.18,0.08 -6.12,1.29 -8.84,3.67 -2.73,2.38 -4.91,5.52 -6.56,9.41 -1.63,3.9 -2.43,8 -2.43,12.34 0,2.41 0.48,4.21 1.45,5.37 0.95,1.18 2.3,1.76 4.03,1.76zm-9.71 53.01c1.96,0 4.16,-2.35 6.62,-7.03 2.44,-4.65 4.81,-12.07 7.07,-22.26 -5.99,5.13 -10.32,9.76 -12.97,13.9 -2.66,4.14 -3.98,7.75 -3.98,10.85 0,1.31 0.23,2.39 0.72,3.25 0.51,0.85 1.35,1.29 2.53,1.29zm0 0z"/>
   <path fill="#FEFEFE" fill-rule="nonzero" d="M670.91 338.92c1.03,0 1.83,0.46 2.43,1.39 0.58,0.93 0.88,2.22 0.88,3.88 0,3.1 -0.75,5.52 -2.22,7.23 -2.9,3.51 -6.98,6.75 -12.25,9.71 -5.24,2.93 -10.85,4.39 -16.84,4.39 -8.16,0 -14.5,-2.19 -19.02,-6.61 -4.52,-4.44 -6.77,-10.51 -6.77,-18.24 0,-5.37 1.11,-10.36 3.36,-14.98 2.28,-4.65 5.4,-8.33 9.41,-11.06 3.99,-2.71 8.52,-4.08 13.59,-4.08 4.51,0 8.13,1.35 10.85,4.03 2.75,2.69 4.14,6.33 4.14,10.9 0,5.37 -1.93,9.99 -5.78,13.84 -3.86,3.86 -10.39,6.91 -19.58,9.15 1.96,3.59 5.66,5.37 11.11,5.37 3.51,0 7.49,-1.21 11.93,-3.66 4.47,-2.44 8.35,-5.65 11.63,-9.61 0.95,-1.1 2.01,-1.65 3.15,-1.65zm-29.4 -16.95c-2.89,0 -5.35,1.69 -7.33,5.06 -1.97,3.35 -2.95,7.39 -2.95,12.15l0 0.21c4.57,-1.1 8.19,-2.74 10.85,-4.91 2.65,-2.17 3.98,-4.7 3.98,-7.59 0,-1.48 -0.41,-2.67 -1.24,-3.57 -0.81,-0.89 -1.9,-1.34 -3.31,-1.34zm0 0z"/>
   <path fill="#FEFEFE" fill-rule="nonzero" d="M793.66 268.13c2.17,0.35 3.64,1.03 4.45,2.02 0.83,1.01 1.24,2.32 1.24,3.98 0,5.37 -2.88,7.85 -8.63,7.44l-4.08 -0.31c-4.59,-0.41 -9.17,-0.72 -13.75,-0.93 -4.55,-0.23 -9.3,-0.36 -14.26,-0.36l-5.27 0c-0.93,11.51 -1.91,22.01 -2.95,31.52l20.1 -0.36c2.9,0 4.82,0.52 5.79,1.55 0.96,1 1.44,2.37 1.44,4.08 0,2.62 -0.77,4.7 -2.32,6.25 -1.54,1.52 -3.77,2.27 -6.66,2.27l-19.94 0 -0.72 5.01c-1.63,12.86 -5.11,22 -10.44,27.44 -5.35,5.45 -12.69,8.16 -22.01,8.16 -5.31,0 -10.18,-1.13 -14.62,-3.4 -4.42,-2.3 -7.68,-5.09 -9.77,-8.37 -0.86,-1.34 -1.29,-2.95 -1.29,-4.81 0,-1.86 0.44,-3.47 1.35,-4.85 0.89,-1.41 1.99,-2.12 3.31,-2.12 0.93,0 1.83,0.31 2.73,0.93 0.9,0.62 2.04,1.83 3.47,3.62 3.72,4.89 8.34,7.33 13.9,7.33 4.44,0 8.16,-1.8 11.16,-5.42 2.99,-3.62 4.91,-9.32 5.78,-17.1l0.67 -6.41 -5.58 0c-1.8,0 -3.34,-0.49 -4.65,-1.5 -1.28,-1.03 -1.91,-2.48 -1.91,-4.34 0,-2.4 0.62,-4.24 1.86,-5.53 1.24,-1.3 3.06,-1.96 5.48,-1.96 2.2,0 4.35,-0.03 6.46,-0.1 0.93,-8.58 1.94,-18.98 3.05,-31.2 -8.45,0.8 -14.36,2.17 -17.77,4.13 -3.41,1.94 -5.11,4.81 -5.11,8.63 0,2.62 0.77,5.15 2.32,7.59 0.44,0.7 0.67,1.38 0.67,2.06 0,1.42 -0.77,2.66 -2.32,3.72 -1.55,1.04 -3.31,1.55 -5.27,1.55 -2.11,0 -3.9,-0.62 -5.37,-1.86 -0.93,-0.79 -1.83,-2.39 -2.69,-4.81 -0.83,-2.4 -1.24,-5.09 -1.24,-8.06 0,-9.64 4.96,-16.64 14.87,-20.98 9.93,-4.37 24.42,-6.56 43.51,-6.56 13.23,0 24.9,0.7 35.02,2.06zm0 0z"/>
   <path fill="#FEFEFE" fill-rule="nonzero" d="M838.35 329.1c1,0 1.77,0.51 2.32,1.54 0.55,1.01 0.83,2.28 0.83,3.83 0,3.76 -1.12,5.98 -3.36,6.66 -4.69,1.63 -9.84,2.56 -15.45,2.79 -1.48,6.55 -4.42,11.78 -8.78,15.71 -4.34,3.92 -9.28,5.89 -14.78,5.89 -4.69,0 -8.68,-1.11 -11.98,-3.36 -3.31,-2.27 -5.83,-5.27 -7.55,-8.99 -1.69,-3.75 -2.53,-7.8 -2.53,-12.14 0,-5.92 1.11,-11.19 3.36,-15.81 2.28,-4.65 5.39,-8.27 9.35,-10.85 3.95,-2.6 8.35,-3.92 13.18,-3.92 5.91,0 10.69,2.05 14.31,6.15 3.62,4.07 5.73,9.1 6.36,15.09 3.68,-0.23 8.03,-1.01 13.07,-2.33 0.65,-0.16 1.2,-0.25 1.65,-0.25zm-38.29 24.07c2.48,0 4.63,-1 6.46,-3.05 1.83,-2.03 3.05,-4.96 3.67,-8.78 -2.42,-1.61 -4.27,-3.75 -5.53,-6.4 -1.28,-2.65 -1.91,-5.45 -1.91,-8.42 0,-1.24 0.12,-2.48 0.36,-3.72l-0.62 0c-3.1,0 -5.69,1.5 -7.75,4.49 -2.07,2.99 -3.1,7.23 -3.1,12.66 0,4.31 0.83,7.59 2.48,9.87 1.68,2.24 3.67,3.36 5.94,3.36zm0 0z"/>
   <path fill="#FEFEFE" fill-rule="nonzero" d="M891.01 329.1c0.99,0 1.77,0.51 2.32,1.54 0.54,1.01 0.83,2.28 0.83,3.83 0,3.76 -1.13,5.98 -3.36,6.66 -4.69,1.63 -9.84,2.56 -15.45,2.79 -1.48,6.55 -4.42,11.78 -8.78,15.71 -4.34,3.92 -9.27,5.89 -14.77,5.89 -4.69,0 -8.68,-1.11 -11.99,-3.36 -3.31,-2.27 -5.82,-5.27 -7.55,-8.99 -1.69,-3.75 -2.53,-7.8 -2.53,-12.14 0,-5.92 1.11,-11.19 3.36,-15.81 2.28,-4.65 5.39,-8.27 9.36,-10.85 3.95,-2.6 8.34,-3.92 13.17,-3.92 5.91,0 10.7,2.05 14.31,6.15 3.62,4.07 5.73,9.1 6.36,15.09 3.68,-0.23 8.03,-1.01 13.07,-2.33 0.64,-0.16 1.2,-0.25 1.65,-0.25zm-38.29 24.07c2.48,0 4.62,-1 6.45,-3.05 1.83,-2.03 3.05,-4.96 3.67,-8.78 -2.41,-1.61 -4.26,-3.75 -5.53,-6.4 -1.28,-2.65 -1.91,-5.45 -1.91,-8.42 0,-1.24 0.12,-2.48 0.36,-3.72l-0.62 0c-3.1,0 -5.69,1.5 -7.75,4.49 -2.06,2.99 -3.1,7.23 -3.1,12.66 0,4.31 0.83,7.59 2.47,9.87 1.68,2.24 3.67,3.36 5.95,3.36zm0 0z"/>
   <path fill="#FEFEFE" fill-rule="nonzero" d="M950.43 338.92c1.03,0 1.83,0.46 2.38,1.39 0.58,0.93 0.87,2.22 0.87,3.88 0,3.1 -0.75,5.52 -2.22,7.23 -3.18,3.9 -6.66,7.22 -10.49,9.97 -3.82,2.76 -7.59,4.13 -11.31,4.13 -5.93,0 -10.44,-3.46 -13.54,-10.38 -3.28,4.14 -6.15,6.91 -8.63,8.32 -2.45,1.38 -5.31,2.06 -8.58,2.06 -4.72,0 -8.63,-1.75 -11.73,-5.26 -3.07,-3.54 -4.59,-8.17 -4.59,-13.85 0,-6.23 1.31,-12.01 3.98,-17.36 2.65,-5.33 6.27,-9.69 10.9,-13.07 4.65,-3.37 9.84,-5.37 15.6,-5.99 1.48,-15.11 4.31,-28.02 8.48,-38.7 4.16,-10.71 9.62,-16.07 16.38,-16.07 3.37,0 6.16,1.52 8.37,4.55 2.2,3.03 3.31,7.62 3.31,13.75 0,8.76 -2.14,18.96 -6.4,30.64 -4.27,11.67 -10,23.66 -17.15,35.96 0.31,4.52 0.98,7.75 2.01,9.71 1.06,1.93 2.41,2.89 4.03,2.89 2.09,0 4.24,-0.93 6.4,-2.79 2.19,-1.89 5.13,-5.01 8.78,-9.35 0.93,-1.1 1.98,-1.65 3.15,-1.65zm-13.79 -72.29c-1.45,0 -2.92,2.64 -4.39,7.91 -1.49,5.24 -2.77,12.11 -3.83,20.62 -1.03,8.47 -1.79,17.34 -2.27,26.6 8.7,-19.01 13.07,-34.27 13.07,-45.78 0,-2.95 -0.26,-5.24 -0.77,-6.87 -0.49,-1.65 -1.09,-2.48 -1.81,-2.48zm-33.58 87.11c1.47,0 2.95,-0.59 4.39,-1.8 1.48,-1.2 3.36,-3.44 5.63,-6.72 -0.8,-4.2 -1.19,-8.9 -1.19,-14.11 0,-1.88 0.08,-4.93 0.26,-9.14 -4.27,1.34 -7.84,4.22 -10.69,8.63 -2.83,4.38 -4.24,9.25 -4.24,14.62 0,5.68 1.93,8.52 5.84,8.52zm0 0z"/>
   <path fill="#FEFEFE" fill-rule="nonzero" d="M965.98 368.1c-4.07,0 -7.17,-0.93 -9.3,-2.79 -2.15,-1.86 -3.21,-3.95 -3.21,-6.3 0,-2.03 0.74,-3.79 2.22,-5.27 1.48,-1.47 3.67,-2.22 6.56,-2.22 1,0 2.17,0.1 3.51,0.31 1.37,0.18 2.41,0.31 3.1,0.42 -0.08,-2.03 -0.52,-3.94 -1.35,-5.73 -0.8,-1.78 -1.83,-3.51 -3.1,-5.17 -1.24,-1.68 -2.41,-3.15 -3.47,-4.39 -2.41,4.58 -4.8,8.39 -7.18,11.42 -2.38,3.03 -4.99,5.91 -7.81,8.63 -1.38,1.42 -2.86,2.12 -4.44,2.12 -1.24,0 -2.24,-0.44 -2.99,-1.34 -0.79,-0.9 -1.19,-1.99 -1.19,-3.31 0,-1.58 0.55,-3.02 1.65,-4.34l1.5 -1.86c4.27,-5.3 7.51,-9.67 9.71,-13.07 1.31,-2.28 2.86,-5.28 4.65,-9.04 1.78,-3.79 3.53,-7.71 5.26,-11.78 1.48,-3.4 4.55,-5.11 9.2,-5.11 2.19,0 3.72,0.21 4.55,0.62 0.85,0.39 1.29,0.98 1.29,1.8 0,0.49 -0.16,1.24 -0.46,2.28 -0.31,1 -0.75,2 -1.29,2.99 -1.38,2.83 -2.06,5.21 -2.06,7.14 0,1.17 0.38,2.46 1.19,3.87 0.82,1.39 2.09,3.13 3.82,5.22 2.48,3.28 4.35,6.07 5.63,8.37 1.31,2.32 1.96,4.83 1.96,7.55 0,0.76 -0.09,1.85 -0.26,3.25 3.83,-1.47 8.29,-5.4 13.43,-11.78 0.93,-1.1 1.98,-1.65 3.16,-1.65 1.03,0 1.83,0.46 2.43,1.39 0.58,0.93 0.87,2.22 0.87,3.88 0,2.97 -0.75,5.37 -2.22,7.23 -3.9,4.83 -7.62,8.11 -11.16,9.87 -3.55,1.76 -7.94,2.71 -13.12,2.84 -3.14,2.65 -6.85,3.98 -11.11,3.98zm0 0z"/>
  </g>
 </g>
</svg>
