<svg height="536.61" viewBox="0 0 846.645 536.61" width="846.645" xmlns="http://www.w3.org/2000/svg" xmlns:xlink="http://www.w3.org/1999/xlink"><clipPath id="a"><path d="m687.948 1381.58s3.266-39.516-34.113-46.4-133.907-71.767-171.46-62.484c-15.81 3.907-1.179 48.533-10.728 72.4-8.046 20.112-49.228 58.507-19.347 66.573h240.123z" transform="translate(-441.572 -1271.793)"/></clipPath><clipPath id="b"><path d="m823.282 1326.739c0 34.388-34.488 49.495-73.332 49.495s-67.33-15.107-67.33-49.495 34.975-76.629 73.819-76.629 66.843 42.245 66.843 76.629z" transform="translate(-682.62 -1250.11)"/></clipPath><clipPath id="c"><path d="m1117.2 1395.054s10.064-98.34 18.674-109 144.075-33.827 196.372-38.921c216.731-21.109 390.676 142.533 351.8 147.379-12.467 1.554-82.217.537-82.217.537z" transform="translate(-1117.2 -1245.259)"/></clipPath><clipPath id="d"><path d="m896.691 1531.457 89.131-39.957-6.357 54.631s-67.218 12.162-80.234 11.563-2.54-26.237-2.54-26.237z" transform="translate(-892.705 -1491.5)"/></clipPath><clipPath id="e"><path d="m897.985 1203.464s-40.935-10.945-65.456-31.319c-24.63-20.46 60.262-57.271 87.612-53.452s40.479 85.243 9.426 136.122l-17.028-75.715s2.091 18.181-14.554 24.364z" transform="translate(-828.1 -1118.417)"/></clipPath><path d="m1199.763 813.609c22.26 0 36.788-22.589 36.819-48.633.274-222.114-45.986-451.158-329.39-465.631-331.326-16.92-455.343 53.92-493.237 378.247-8.417 72.057-29.816 137.285 102.232 136.021h683.576z" fill="#f2f8fe" opacity=".56" transform="translate(-407.339 -297.029)"/><g opacity=".56" transform="translate(13.23 317.44)"><g transform="translate(0 59.275)"><path d="m687.948 1381.58s3.266-39.516-34.113-46.4-133.907-71.767-171.46-62.484c-15.81 3.907-1.179 48.533-10.728 72.4-8.046 20.112-49.228 58.507-19.347 66.573h240.123z" fill="#bcdef9" transform="translate(-441.572 -1271.793)"/><g clip-path="url(#a)"><path d="m666.8 1302.83s-27.88 81.409-1.836 109.216 78.3 38.685 78.3 38.685h79.4v-134.124z" fill="#77aae9" opacity=".42" transform="translate(-571.807 -1290.835)"/></g></g><path d="m989.948 1366.725s58.129-5.882 83.968-15.354-12.916 108.454-12.916 108.454h-95.33z" fill="#89503d" transform="translate(-763.123 -1261.01)"/><g transform="translate(93.157 50.895)"><path d="m823.282 1326.739c0 34.388-34.488 49.495-73.332 49.495s-67.33-15.107-67.33-49.495 34.975-76.629 73.819-76.629 66.843 42.245 66.843 76.629z" fill="#9e5c46" transform="translate(-682.62 -1250.11)"/><g clip-path="url(#b)"><path d="m738.288 1331.15s7.262 108.3-115.789 75.249 10.636 43.4 67.446 30.589 73.893-39.462 73.464-58.384-25.12-47.454-25.12-47.454" fill="#8a4f3d" transform="translate(-612.18 -1299.831)"/></g></g><path d="m791.6 1245.978a147.268 147.268 0 0 0 -34.62-4.75 24.789 24.789 0 0 0 -9.24 1.109 1.7 1.7 0 0 0 -1.144.935c-.24.8.657 1.461 1.445 1.739a10.907 10.907 0 0 0 3.838.626q-6.214.586-12.433 1.167c-3.509.328-7.409.854-9.646 3.579-.564.684-.927 1.828-.216 2.361a1.858 1.858 0 0 0 1.082.263q4.04.157 8.077.309a38.989 38.989 0 0 0 -16.092 6.96 2.72 2.72 0 0 0 -1.2 1.465c-.305 1.43 1.538 2.276 2.984 2.5 8.989 1.415 18.164.622 27.23-.17a161.248 161.248 0 0 0 21.924-2.933c3.633-.831 7.327-1.979 10.145-4.417s4.545-6.469 3.32-9.99" fill="#9e5c46" transform="translate(-613.27 -1193.758)"/><path d="m776.06 1450.323s9.778 6.265 14.976-3.973c-.004 0-5.198 5.65-14.976 3.973z" fill="#231f20" transform="translate(-646.791 -1319.615)"/><path d="m922.4 1435.82s6.612 8.572 16.722 1.538a22.676 22.676 0 0 1 -16.722-1.538z" fill="#231f20" transform="translate(-736.576 -1313.154)"/><path d="m786.826 1386.511c4.68-5.306 33.112.232 43.771 2.535-.081-14.875-9.3-28.251-27.312-24.2-8.382 1.886-16.065 6.694-24.289 9.26a11.79 11.79 0 0 0 -2.891-2.145q-2.284-1.328-4.634-2.535a2.607 2.607 0 0 0 -2.485-.325 1.765 1.765 0 0 0 -.568 2.029 5.107 5.107 0 0 0 1.287 1.847 58.334 58.334 0 0 0 -8.12-6.35 1.352 1.352 0 0 0 -1.221-.3.945.945 0 0 0 -.441.468 3.024 3.024 0 0 0 .5 2.829 12.213 12.213 0 0 0 3.613 3.737 60.986 60.986 0 0 0 -7.331-3.888 15.666 15.666 0 0 0 -6.18-1.662c-.433 0-.947.081-1.125.475a1.112 1.112 0 0 0 .232 1.028 12.088 12.088 0 0 0 5.175 3.88c.22.1.441.209.665.309 1.627.754 3.289 1.43 4.974 2.041-7.892-.642-15.582-2.1-23.261-1.859a37.84 37.84 0 0 0 -16.556 4.089c-10.86 5.584-15.834 15.211-14.462 25.959 8.927-5.484 34.709-18.373 44.127-12.1 9.673 6.45-20.259 29.646-29.943 36.807 26.751 22.825 79.852 13.65 101.2-14.122-25.114-1.245-40.109-21.708-34.725-27.807z" fill="#ecc18f" transform="translate(-603.772 -1269.16)"/><path d="m884.807 1516.688a6.621 6.621 0 0 1 .993 4.8 2.171 2.171 0 0 1 -.414.985 2.017 2.017 0 0 1 -1.635.6 3.919 3.919 0 0 1 -3.606-2.991c-.2-.912-.193-2.091-1.051-2.458a1.508 1.508 0 0 0 -.858-.062c-1.337.236-2.369 1.473-3.725 1.577-1.739.131-3.069-1.623-4.785-1.944a6.953 6.953 0 0 1 -1.5-.263c-.468-.2-.85-.765-.611-1.214.216-.406.765-.464 1.229-.471a45.69 45.69 0 0 0 7.71-.831c1.167-.228 2.307-.549 3.467-.8a2.551 2.551 0 0 1 2.114.417 8.849 8.849 0 0 1 2.672 2.655z" fill="#fff" transform="translate(-702.917 -1360.84)"/><path d="m856.923 1481.828c-1.175.193-2.369.255-3.548.4l-1.778.124c-.29.031-.58.05-.87.062a26.948 26.948 0 0 1 -1.013-8.475c4.8-.506 8.44-3.521 8.185-6.871-.259-3.443-4.522-5.928-9.523-5.55s-8.842 3.474-8.583 6.914c.228 3.018 3.536 5.3 7.722 5.561a31.988 31.988 0 0 0 .931 8.506c-1.917.062-3.842.07-5.774.012-2.4-.058-4.8-.193-7.254-.371a26.631 26.631 0 0 0 7.092 2.083 35.677 35.677 0 0 0 7.4.417c1.241-.031 2.473-.2 3.706-.344.611-.112 1.221-.22 1.832-.344.305-.066.611-.112.908-.189l.9-.247a26.225 26.225 0 0 0 6.821-2.856c-2.439.395-4.777.909-7.154 1.168z" fill="#352f31" transform="translate(-683.211 -1328.898)"/><path d="m773.858 1408.833a22.424 22.424 0 0 0 -3.729.68 5.2 5.2 0 0 0 -3.215 2.245c-.672 1.26-.178 2.381 1.349 2.408 6.064.112 12.093-.777 18.164-.587a6.327 6.327 0 0 0 1.793-.108c3.656-.951-.993-3.339-2.4-3.66a37.959 37.959 0 0 0 -11.962-.978z" fill="#9e5c46" transform="translate(-640.999 -1296.513)"/><path d="m913.458 1392.093a22.426 22.426 0 0 0 -3.729.68 5.2 5.2 0 0 0 -3.215 2.245c-.672 1.26-.178 2.381 1.349 2.408 6.064.112 12.093-.777 18.164-.587a6.331 6.331 0 0 0 1.793-.108c3.656-.951-.993-3.339-2.4-3.66a37.939 37.939 0 0 0 -11.962-.978z" fill="#9e5c46" transform="translate(-726.649 -1286.242)"/><path d="m773.38 1244.739q-2.939-.73-5.894-1.349a56.994 56.994 0 0 0 -5.925-.974c-.491-.05-.985-.081-1.469-.085a5.268 5.268 0 0 0 -1.364.127.69.69 0 0 0 -.371.186c-.008.019 0 .008 0 .031s0 .016.012.07l.031.131a1.583 1.583 0 0 0 .669.862 5.966 5.966 0 0 0 2.566.823 15.6 15.6 0 0 0 2.879.089.708.708 0 0 1 .112 1.411h-.019c-2.636.259-5.283.533-7.911.889s-5.252.746-7.814 1.295a24.645 24.645 0 0 0 -3.706 1.047 6.737 6.737 0 0 0 -.8.371 2.31 2.31 0 0 0 -.545.394c-.043.023-.077.224-.073.189-.015 0 .008-.012-.008-.008 0 0 .015.008.012.023a.306.306 0 0 1 .066.058 1.135 1.135 0 0 1 .112.073 5.12 5.12 0 0 0 1.612.4 17 17 0 0 0 1.9.093 35.221 35.221 0 0 0 3.884-.232h.019a.841.841 0 0 1 .328 1.642c-2.775.815-5.554 1.7-8.294 2.651a73.57 73.57 0 0 0 -8.054 3.177 13.42 13.42 0 0 0 -1.82 1.04 3.375 3.375 0 0 0 -.7.618.616.616 0 0 0 -.128.236c0 .035-.012.046.046.12a1.1 1.1 0 0 0 .313.213c.135.07.317.128.471.193l.487.193c.166.058.336.1.5.155l.506.151.522.108c.174.035.348.073.522.1l.529.07a24.321 24.321 0 0 0 8.607-.665 24.52 24.52 0 0 1 -4.251 1.1 19.631 19.631 0 0 1 -4.421.255l-.56-.039c-.186-.019-.371-.05-.557-.073l-.557-.077-.553-.124c-.185-.042-.371-.081-.553-.131l-.541-.182c-.186-.066-.352-.112-.549-.2a2.164 2.164 0 0 1 -.6-.379 1.128 1.128 0 0 1 -.348-.858 1.485 1.485 0 0 1 .286-.758 4.422 4.422 0 0 1 .881-.881 14.838 14.838 0 0 1 1.917-1.225c1.306-.719 2.651-1.322 4-1.905s2.717-1.121 4.089-1.639c2.752-1.02 5.515-1.967 8.313-2.856l.348 1.639a37.186 37.186 0 0 1 -4.093.274 19.235 19.235 0 0 1 -2.095-.089 6.457 6.457 0 0 1 -2.245-.58l-.309-.193a4.022 4.022 0 0 1 -.313-.271 2.3 2.3 0 0 1 -.278-.383 1.678 1.678 0 0 1 -.174-.475 1.488 1.488 0 0 1 -.031-.483 1.546 1.546 0 0 1 .077-.425 2.023 2.023 0 0 1 .4-.765 3.59 3.59 0 0 1 1.044-.8 9.4 9.4 0 0 1 1.013-.464 27.166 27.166 0 0 1 3.988-1.1c2.655-.549 5.314-.924 7.977-1.217s5.326-.545 8-.7l.093 1.414a17.146 17.146 0 0 1 -3.154-.209 7.122 7.122 0 0 1 -3.088-1.156 2.762 2.762 0 0 1 -1.044-1.554 1.961 1.961 0 0 1 -.054-.545 1.154 1.154 0 0 1 .278-.657 1.729 1.729 0 0 1 .951-.5 6.319 6.319 0 0 1 1.646-.081c.526.031 1.036.093 1.546.166a52.516 52.516 0 0 1 5.936 1.368q2.923.822 5.775 1.842z" fill="#ecc18f" transform="translate(-619.571 -1193.844)"/><g transform="translate(261.108 49.02)"><path d="m1117.2 1395.054s10.064-98.34 18.674-109 144.075-33.827 196.372-38.921c216.731-21.109 390.676 142.533 351.8 147.379-12.467 1.554-82.217.537-82.217.537z" fill="#bcdef9" transform="translate(-1117.2 -1245.259)"/><g clip-path="url(#c)"><path d="m1417.242 1368.938a6.811 6.811 0 0 0 4.661-1.928 6.6 6.6 0 0 0 0-9.322 6.6 6.6 0 0 0 -9.322 0 6.6 6.6 0 0 0 0 9.322 6.856 6.856 0 0 0 4.661 1.928z" fill="#fff" transform="translate(-1297.24 -1313.055)"/></g><g clip-path="url(#c)"><path d="m1507.532 1486.068a6.811 6.811 0 0 0 4.661-1.928 6.6 6.6 0 0 0 0-9.322 6.6 6.6 0 0 0 -9.322 0 6.6 6.6 0 0 0 0 9.322 6.856 6.856 0 0 0 4.661 1.928z" fill="#fff" transform="translate(-1352.636 -1384.918)"/></g><g clip-path="url(#c)"><path d="m1624.662 1298.168a6.811 6.811 0 0 0 4.661-1.928 6.6 6.6 0 0 0 0-9.322 6.6 6.6 0 0 0 -9.322 0 6.6 6.6 0 0 0 0 9.322 6.856 6.856 0 0 0 4.661 1.928z" fill="#fff" transform="translate(-1424.499 -1269.635)"/></g><g clip-path="url(#c)"><path d="m1553.892 1381.139a6.81 6.81 0 0 0 4.661-1.928 6.6 6.6 0 0 0 0-9.322 6.6 6.6 0 0 0 -9.322 0 6.6 6.6 0 0 0 0 9.322 6.864 6.864 0 0 0 4.661 1.928z" fill="#fff" transform="translate(-1381.08 -1320.54)"/></g><g clip-path="url(#c)"><path d="m1497.772 1271.328a6.811 6.811 0 0 0 4.661-1.928 6.6 6.6 0 0 0 0-9.322 6.6 6.6 0 0 0 -9.322 0 6.6 6.6 0 0 0 0 9.322 6.857 6.857 0 0 0 4.661 1.928z" fill="#fff" transform="translate(-1346.648 -1253.168)"/></g><g clip-path="url(#c)"><path d="m1239.1 1376.259a6.811 6.811 0 0 0 4.661-1.928 6.6 6.6 0 0 0 0-9.322 6.6 6.6 0 0 0 -9.322 0 6.6 6.6 0 0 0 0 9.322 6.857 6.857 0 0 0 4.661 1.928z" fill="#fff" transform="translate(-1187.946 -1317.546)"/></g><g clip-path="url(#c)"><path d="m1324.512 1520.239a6.811 6.811 0 0 0 4.661-1.928 6.6 6.6 0 0 0 0-9.322 6.6 6.6 0 0 0 -9.322 0 6.6 6.6 0 0 0 0 9.322 6.857 6.857 0 0 0 4.661 1.928z" fill="#fff" transform="translate(-1240.347 -1405.882)"/></g><g clip-path="url(#c)"><path d="m1317.192 1412.868a6.81 6.81 0 0 0 4.661-1.928 6.6 6.6 0 0 0 0-9.322 6.6 6.6 0 0 0 -9.322 0 6.6 6.6 0 0 0 0 9.322 6.856 6.856 0 0 0 4.661 1.928z" fill="#fff" transform="translate(-1235.856 -1340.007)"/></g><g clip-path="url(#c)"><path d="m1178.092 1486.068a6.811 6.811 0 0 0 4.661-1.928 6.6 6.6 0 0 0 0-9.322 6.6 6.6 0 0 0 -9.322 0 6.6 6.6 0 0 0 0 9.322 6.856 6.856 0 0 0 4.661 1.928z" fill="#fff" transform="translate(-1150.514 -1384.918)"/></g><g clip-path="url(#c)"><path d="m1202.5 1581.239a6.811 6.811 0 0 0 4.661-1.928 6.6 6.6 0 0 0 0-9.322 6.6 6.6 0 0 0 -9.322 0 6.6 6.6 0 0 0 0 9.322 6.856 6.856 0 0 0 4.661 1.928z" fill="#fff" transform="translate(-1165.49 -1443.308)"/></g><g clip-path="url(#c)"><path d="m1444.3 1576.6a6.811 6.811 0 0 0 4.661-1.928 6.6 6.6 0 0 0 0-9.322 6.6 6.6 0 0 0 -9.322 0 6.6 6.6 0 0 0 0 9.322 6.857 6.857 0 0 0 4.661 1.928z" fill="#fff" transform="translate(-1313.843 -1440.461)"/></g><g clip-path="url(#c)"><path d="m1414.352 1456.8a6.81 6.81 0 0 0 4.661-1.928 6.6 6.6 0 0 0 0-9.322 6.6 6.6 0 0 0 -9.322 0 6.6 6.6 0 0 0 0 9.322 6.856 6.856 0 0 0 4.661 1.928z" fill="#fff" transform="translate(-1295.467 -1366.96)"/></g><g clip-path="url(#c)"><path d="m1693.892 1490.078a6.81 6.81 0 0 0 4.661-1.929 6.6 6.6 0 0 0 0-9.322 6.6 6.6 0 0 0 -9.322 0 6.6 6.6 0 0 0 0 9.322 6.873 6.873 0 0 0 4.661 1.929z" fill="#fff" transform="translate(-1466.974 -1387.378)"/></g><g clip-path="url(#c)"><path d="m1757.122 1340.318a6.811 6.811 0 0 0 4.661-1.928 6.6 6.6 0 0 0 0-9.322 6.6 6.6 0 0 0 -9.322 0 6.6 6.6 0 0 0 0 9.322 6.856 6.856 0 0 0 4.661 1.928z" fill="#fff" transform="translate(-1505.768 -1295.496)"/></g><g clip-path="url(#c)"><path d="m1637.322 1393.568a6.811 6.811 0 0 0 4.661-1.928 6.6 6.6 0 0 0 0-9.322 6.6 6.6 0 0 0 -9.322 0 6.6 6.6 0 0 0 0 9.322 6.856 6.856 0 0 0 4.661 1.928z" fill="#fff" transform="translate(-1432.267 -1328.166)"/></g><g clip-path="url(#c)"><path d="m1617.352 1579.928a6.811 6.811 0 0 0 4.661-1.928 6.6 6.6 0 0 0 0-9.322 6.6 6.6 0 0 0 -9.322 0 6.6 6.6 0 0 0 0 9.322 6.856 6.856 0 0 0 4.661 1.928z" fill="#fff" transform="translate(-1420.014 -1442.504)"/></g><g clip-path="url(#c)"><path d="m1863.622 1623.188a6.811 6.811 0 0 0 4.661-1.928 6.6 6.6 0 0 0 0-9.322 6.6 6.6 0 0 0 -9.322 0 6.6 6.6 0 0 0 0 9.322 6.856 6.856 0 0 0 4.661 1.928z" fill="#fff" transform="translate(-1571.109 -1469.046)"/></g><g clip-path="url(#c)"><path d="m1920.192 1443.489a6.811 6.811 0 0 0 4.661-1.928 6.6 6.6 0 0 0 0-9.322 6.6 6.6 0 0 0 -9.322 0 6.6 6.6 0 0 0 0 9.322 6.874 6.874 0 0 0 4.661 1.928z" fill="#fff" transform="translate(-1605.817 -1358.794)"/></g><g clip-path="url(#c)"><path d="m1777.092 1546.648a6.811 6.811 0 0 0 4.661-1.928 6.6 6.6 0 0 0 0-9.322 6.6 6.6 0 0 0 -9.322 0 6.6 6.6 0 0 0 0 9.322 6.856 6.856 0 0 0 4.661 1.928z" fill="#fff" transform="translate(-1518.02 -1422.086)"/></g><g clip-path="url(#c)"><path d="m1803.712 1436.828a6.81 6.81 0 0 0 4.661-1.928 6.6 6.6 0 0 0 0-9.322 6.6 6.6 0 0 0 -9.322 0 6.6 6.6 0 0 0 0 9.322 6.856 6.856 0 0 0 4.661 1.928z" fill="#fff" transform="translate(-1534.352 -1354.708)"/></g><g clip-path="url(#c)"><path d="m1913.532 1250.469a6.811 6.811 0 0 0 4.661-1.928 6.6 6.6 0 0 0 0-9.322 6.6 6.6 0 0 0 -9.322 0 6.6 6.6 0 0 0 0 9.322 6.856 6.856 0 0 0 4.661 1.928z" fill="#fff" transform="translate(-1601.73 -1240.37)"/></g><g clip-path="url(#c)"><path d="m1760.452 1267.109a6.811 6.811 0 0 0 4.661-1.928 6.6 6.6 0 0 0 0-9.322 6.6 6.6 0 0 0 -9.322 0 6.6 6.6 0 0 0 0 9.322 6.857 6.857 0 0 0 4.661 1.928z" fill="#fff" transform="translate(-1507.811 -1250.579)"/></g><g clip-path="url(#c)"><path d="m2153.142 1460.119a6.81 6.81 0 0 0 4.661-1.928 6.6 6.6 0 0 0 0-9.322 6.6 6.6 0 0 0 -9.322 0 6.6 6.6 0 0 0 0 9.322 6.857 6.857 0 0 0 4.661 1.928z" fill="#fff" transform="translate(-1748.739 -1368.997)"/></g><g clip-path="url(#c)"><path d="m2079.932 1333.668a6.811 6.811 0 0 0 4.661-1.928 6.6 6.6 0 0 0 0-9.322 6.6 6.6 0 0 0 -9.322 0 6.6 6.6 0 0 0 0 9.322 6.874 6.874 0 0 0 4.661 1.928z" fill="#fff" transform="translate(-1703.822 -1291.416)"/></g><g clip-path="url(#c)"><path d="m1913.532 1343.648a6.811 6.811 0 0 0 4.661-1.928 6.6 6.6 0 0 0 0-9.322 6.6 6.6 0 0 0 -9.322 0 6.6 6.6 0 0 0 0 9.322 6.856 6.856 0 0 0 4.661 1.928z" fill="#fff" transform="translate(-1601.73 -1297.539)"/></g><g clip-path="url(#c)"><path d="m2030.012 1410.208a6.811 6.811 0 0 0 4.661-1.928 6.6 6.6 0 0 0 0-9.322 6.6 6.6 0 0 0 -9.322 0 6.6 6.6 0 0 0 0 9.322 6.875 6.875 0 0 0 4.661 1.928z" fill="#fff" transform="translate(-1673.195 -1338.375)"/></g><g clip-path="url(#c)"><path d="m2046.652 1556.628a6.81 6.81 0 0 0 4.661-1.928 6.6 6.6 0 0 0 0-9.322 6.6 6.6 0 0 0 -9.322 0 6.6 6.6 0 0 0 0 9.322 6.856 6.856 0 0 0 4.661 1.928z" fill="#fff" transform="translate(-1683.404 -1428.209)"/></g><g clip-path="url(#c)"><path d="m1936.832 1549.979a6.812 6.812 0 0 0 4.661-1.928 6.6 6.6 0 0 0 0-9.322 6.6 6.6 0 0 0 -9.322 0 6.6 6.6 0 0 0 0 9.322 6.857 6.857 0 0 0 4.661 1.928z" fill="#fff" transform="translate(-1616.026 -1424.129)"/></g><g clip-path="url(#c)"><path d="m2186.422 1593.239a6.811 6.811 0 0 0 4.661-1.928 6.6 6.6 0 0 0 0-9.322 6.6 6.6 0 0 0 -9.322 0 6.6 6.6 0 0 0 0 9.322 6.857 6.857 0 0 0 4.661 1.928z" fill="#fff" transform="translate(-1769.157 -1450.67)"/></g><g clip-path="url(#c)"><path d="m2259.632 1500.058a6.81 6.81 0 0 0 4.661-1.928 6.6 6.6 0 0 0 0-9.322 6.6 6.6 0 0 0 -9.322 0 6.6 6.6 0 0 0 0 9.322 6.856 6.856 0 0 0 4.661 1.928z" fill="#fff" transform="translate(-1814.074 -1393.501)"/></g><g clip-path="url(#c)"><path d="m2199.732 1390.239a6.81 6.81 0 0 0 4.661-1.928 6.6 6.6 0 0 0 0-9.322 6.6 6.6 0 0 0 -9.322 0 6.6 6.6 0 0 0 0 9.322 6.856 6.856 0 0 0 4.661 1.928z" fill="#fff" transform="translate(-1777.324 -1326.123)"/></g><g clip-path="url(#c)"><path d="m2432.682 1523.348a6.81 6.81 0 0 0 4.661-1.928 6.6 6.6 0 0 0 0-9.322 6.6 6.6 0 0 0 -9.322 0 6.6 6.6 0 0 0 0 9.322 6.856 6.856 0 0 0 4.661 1.928z" fill="#fff" transform="translate(-1920.246 -1407.791)"/></g><g clip-path="url(#c)"><path d="m2332.852 1426.849a6.81 6.81 0 0 0 4.661-1.928 6.6 6.6 0 0 0 0-9.322 6.6 6.6 0 0 0 -9.322 0 6.6 6.6 0 0 0 0 9.322 6.875 6.875 0 0 0 4.661 1.928z" fill="#fff" transform="translate(-1858.997 -1348.585)"/></g><g clip-path="url(#c)"><path d="m2329.522 1596.568a6.81 6.81 0 0 0 4.661-1.928 6.6 6.6 0 0 0 0-9.322 6.6 6.6 0 0 0 -9.322 0 6.6 6.6 0 0 0 0 9.322 6.856 6.856 0 0 0 4.661 1.928z" fill="#fff" transform="translate(-1856.954 -1452.713)"/></g><g clip-path="url(#c)"><path d="m2459.313 1596.568a6.809 6.809 0 0 0 4.661-1.928 6.6 6.6 0 0 0 0-9.322 6.6 6.6 0 0 0 -9.322 0 6.6 6.6 0 0 0 0 9.322 6.856 6.856 0 0 0 4.661 1.928z" fill="#fff" transform="translate(-1936.584 -1452.713)"/></g><g clip-path="url(#c)"><path d="m1317.842 1603.219a6.811 6.811 0 0 0 4.661-1.928 6.6 6.6 0 0 0 0-9.322 6.6 6.6 0 0 0 -9.322 0 6.6 6.6 0 0 0 0 9.322 6.856 6.856 0 0 0 4.661 1.928z" fill="#fff" transform="translate(-1236.255 -1456.793)"/></g><g clip-path="url(#c)"><path d="m1327.832 1330.338a6.811 6.811 0 0 0 4.661-1.928 6.6 6.6 0 0 0 0-9.322 6.6 6.6 0 0 0 -9.322 0 6.6 6.6 0 0 0 0 9.322 6.857 6.857 0 0 0 4.661 1.928z" fill="#fff" transform="translate(-1242.384 -1289.373)"/></g><g clip-path="url(#c)"><path d="m1127.476 1324.9s31.026 87.083 120.636 92.377 415.881 12.479 415.881 12.479v22.458h-605.443l29.024-122.7 39.9-4.614" fill="#77aae9" opacity=".42" transform="translate(-1081.216 -1294.121)"/></g></g><path d="m773.936 1604.015a11.119 11.119 0 0 0 -9.99-7.505c-10.8-.611-34.523-.92-49.429 6.6-19.791 9.986-38.589 26.805-29.685 24.332s34.137-20.51 45.518-18.8 40.672 2.968 43.342-.495c.835-1.083.75-2.583.244-4.132z" fill="#ecc18f" transform="translate(-589.425 -1411.568)"/><path d="m793.8 1623.15s-46.678-.077-51.164 3.811-30.2 18.983-26.933 20.208 29.379-10.551 34.685-12.007 46.113 4.4 47.334.046-3.922-12.058-3.922-12.058z" fill="#ecc18f" transform="translate(-609.587 -1428.087)"/><path d="m806.22 1622.642s22.813-2.844 30.527-1.878c0 0-15.532-4.912-30.527 1.878z" fill="#e0a870" transform="translate(-665.295 -1425.57)"/><g transform="translate(174.348 144.184)"><path d="m896.691 1531.457 89.131-39.957-6.357 54.631s-67.218 12.162-80.234 11.563-2.54-26.237-2.54-26.237z" fill="#9e5c45" transform="translate(-892.705 -1491.5)"/><g clip-path="url(#d)"><path d="m869.258 1582.477s71.956-5.523 113.652-32.3v40.255l-115.7 9z" fill="#8a4f3d" transform="translate(-877.063 -1527.502)"/></g></g><g transform="translate(149.38)"><path d="m897.985 1203.464s-40.935-10.945-65.456-31.319c-24.63-20.46 60.262-57.271 87.612-53.452s40.479 85.243 9.426 136.122l-17.028-75.715s2.091 18.181-14.554 24.364z" fill="#bcdef9" transform="translate(-828.1 -1118.417)"/><g clip-path="url(#e)"><path d="m944.03 1254.862s37.286-22.079 39.636-36.776 20.923 64.053 16.174 92.973l-16.174-49.059-17.53 6.276-22.106-13.41" fill="#77aae9" opacity=".42" transform="translate(-899.227 -1178.456)"/></g><g clip-path="url(#e)"><path d="m828.4 1197.93s46.755 34.778 73.2 49.7l-15.486 9.387s-65.263-23.88-71.346-39.014 13.632-20.073 13.632-20.073" fill="#fff" opacity=".54" transform="translate(-819.207 -1167.201)"/></g></g><circle cx="250.24" cy="142.642" fill="#fff" r="10.056"/></g></svg>