<svg xmlns="http://www.w3.org/2000/svg" width="77.67mm" height="58.84mm" viewBox="0 0 220.18 166.8"><path d="M207.85,107.08c.07-60.67.33-100-77.08-104C39.56-2.46,14.46,10,12.39,110c-2.3,19.68,53.43,21.17,89.49,20.83,44.18,1.27,105.94-1.64,106-23.76" transform="translate(0 -2)" fill="#f1f7fd"/><path d="M41.53,110.46c-.27.58-1.08,8.62-1.4,10.29,1.46-.76,6.18.22,8.42.35s7.88.65,9.3-.42l-.41-.58c-2.77-.35-5-4.51-5.09-5.9-.07-1.22-.22-.67.55-1.35l1.14-.71c-1.56-.68-.43.26-.75-1.12s1.42-4.62,4.06-5.68c3.76-1.52,5.81,2.31,8.71-.34,2.11-1.92,1.67-4.84,4.94-6s7.54.09,8.6,2.45c2.84.11,4.91,6.51,3.3,8.57a9.71,9.71,0,0,1-2.77,8.43c-.44,1.42-.24.32.34.68,2.22-1,3.76-.1,5.81.58A30.85,30.85,0,0,0,92.5,121c17.76,2.13,25.09-3.5,32.79-3.13,2.82.14,4,1.71,5.9,1.59-.17-1.84,0-.7.46-1.7.64-1.53.12-.23.13-1.56s.26-.66.16-1.84c-.05-.58-.38-1.34-.53-2.34,1.77.36,1.32.5,2.71,1.08,3.88,1.61,4.74-1.33,6.83-1.87a5.69,5.69,0,0,1-4,4.35c-.57.15.17.27-.38,0,.61-.45,2.09-.68,2.92-1.27,1.06-.76,1.29-1.51,2.49-1.88.47,2.75-2.45,4.79-5,5.26,3.36-.07,3.51-2.65,5.88-3.61a6.62,6.62,0,0,1-3,5.06c1.57,3.29,19.57,2.17,24.11,2s9,.3,13.24.13c4.55-.17,7-1.51,10.78-2.79l.8-.26c0-1.61-.18-.36-.47-1.82s.38-1.88-2.4-3.75l.39-2.16c-1.85-.42-6.31-3.25-8.83-4.23-4.32-1.68-6.82-1.18-11.56-1.45-4.57-.26-7-.56-9.94-2.83-5.34-4.06-9.39-16.4-16.75-22-5.43-4.1-13-5.26-20.77-3.22-13.47,3.53-27.12,14.93-38,20.06-2.73,1.29-5.91-3.92-15.74-1.59C57.52,96.94,54,101.7,52,108.32c-1.8.5-9.15,2.75-10.48,2.14" transform="translate(0 -2)" fill="#c27d5e" fill-rule="evenodd"/><path d="M52.11,67c.15,4,.53,13.57,5.32,15.34-.29-4.37-1.25-8.63,1.75-11.31,1.65-1.47,2.79-.51,5.21-.13a44.28,44.28,0,0,0,6.43.56c30.86.5,43.88-26.35,21.56-39.18C69.52,19.12,37,31.91,39.85,51.54c1.32,9.12,7.94,12,12.26,15.43" transform="translate(0 -2)" fill="#e5e6e7" fill-rule="evenodd"/><path d="M29.76,118.69c-3.31.75-5.22,4,.14,5.16,11.61,2.6,64.26,1.38,77,1.39,11.74,0,80.7-.36,85.34-4.87-1.14-1.72-2.92-.82-4.27-1.92-3.82,1.28-6.23,2.62-10.78,2.79-4.28.17-8.7-.29-13.24-.13s-22.54,1.28-24.11-2c-2.82,1.79-5.78,1.38-8.65.33-1.89.12-3.08-1.45-5.9-1.59-7.7-.37-15,5.26-32.79,3.13a30.85,30.85,0,0,1-6.22-1.26c-2-.68-3.59-1.6-5.81-.58-.58-.36-.78.74-.34-.68a14,14,0,0,1-2,1.46c-4.46,2.37-16.35,2.08-20.23.77-1.42,1.07-7.17.55-9.3.42s-7-1.11-8.42-.35c-.24.87-.62.58-1.85.59L31,121.17l-.23-2.73L32,117.8c-1.94.13-.7.3-2.28.89" transform="translate(0 -2)" fill="#c6c6c6" fill-rule="evenodd"/><path d="M54,112.14c1.3-1.46,10.5-5.4,10.87-.75.28,3.63-6.3,4.82-7.47,8.71l.41.58c3.88,1.31,15.77,1.6,20.23-.77a14,14,0,0,0,2-1.46A9.71,9.71,0,0,0,82.9,110c-1.8-.06-3.15-1.34-7.8-.22-12.39,3-4.41-8.65,4.5-8.35C78.54,99.09,74.16,97.87,71,99s-2.83,4.08-4.94,6c-2.9,2.65-5-1.18-8.71.34-2.64,1.06-4.4,4.17-4.06,5.68s-.81.44.75,1.12M71.2,101.57C70.9,99.34,73,99.4,74,99.65l1.06.73C74.45,101.93,72.71,101.88,71.2,101.57ZM55,109.47a2.85,2.85,0,0,1,1-2.28C59,104.44,59.59,109.88,55,109.47Zm12.7,8.19c-1.15-3.27,1.73-4.67,4.34-2.49-.06,1.83-.36,1.33-1.51,2.34l1.2,1.92c1.12-.36,1.08-1,1.6-1.12l-.57,2.19-2.16,0c.37-.53.23-.15.45-.46.33-.46.25-.25-.9-2.28A3.9,3.9,0,0,1,67.71,117.66Z" transform="translate(0 -2)" fill="#f0cdbc" fill-rule="evenodd"/><path d="M30,112.44c1.27.32,3.26-.1,4.37,0l1.45.48c-.4.84-.11.72-2.33,1.13-.75.14-2.19.62-2.73.19,1.66.2,3.93-.34,5.2.61-.56.86-.48.77-2.89,1.14.92.39,1.74.17,2.6.79a5.35,5.35,0,0,1-3.64,1l-1.28.64.23,2.73,7.29.17c1.23,0,1.61.28,1.85-.59.32-1.67,1.13-9.71,1.4-10.29l1.13-9.29-14.16-.1c.73,2.11,1.13,8.57,1.51,11.37m9.27-3.35c-1.79,4.86-9.34,2.48-7.47-2.81C33.51,101.45,41.17,103.94,39.28,109.09Z" transform="translate(0 -2)" fill="#c6c6c6" fill-rule="evenodd"/><path d="M82.9,110c1.61-2.06-.46-8.46-3.3-8.57-8.91-.3-16.89,11.35-4.5,8.35,4.65-1.12,6,.16,7.8.22" transform="translate(0 -2)" fill="#5d493e" fill-rule="evenodd"/><path d="M54,112.14l-1.14.71c-.77.68-.62.13-.55,1.35.09,1.39,2.32,5.55,5.09,5.9,1.17-3.89,7.75-5.08,7.47-8.71-.37-4.65-9.57-.71-10.87.75" transform="translate(0 -2)" fill="#5d493e" fill-rule="evenodd"/><path d="M131.19,119.43c2.87,1,5.83,1.46,8.65-.33a6.62,6.62,0,0,0,3-5.06c-2.37,1-2.52,3.54-5.88,3.61,2.56-.47,5.48-2.51,5-5.26-1.2.37-1.43,1.12-2.49,1.88-.83.59-2.31.82-2.92,1.27.55.28-.19.16.38,0a5.69,5.69,0,0,0,4-4.35c-2.09.54-2.95,3.48-6.83,1.87-1.39-.58-.94-.72-2.71-1.08.15,1,.48,1.76.53,2.34.1,1.18-.15.58-.16,1.84s.51,0-.13,1.56c-.42,1-.63-.14-.46,1.7" transform="translate(0 -2)" fill="#f0cdbc" fill-rule="evenodd"/><path d="M186.29,110.46l-.39,2.16c2.78,1.87,2.14,2.36,2.4,3.75s.43.21.47,1.82l1.36-.74.48-.16a8.43,8.43,0,0,0,3.86-2.82c1.46-2.13,2.89-3.81,2.17-6.79-.94,0-5.72,5.16-10.35,2.78" transform="translate(0 -2)" fill="#f0cdbc" fill-rule="evenodd"/><path d="M174.78,43.15c1.05.75,3.68,1.33,4.35,2s1.23,3.31,2,4.34c.79-1.14.93-3.36,2-4.34s3.28-1.23,4.34-2c-1.08-.72-3.44-1-4.37-2s-1.28-3.33-2-4.34c-.77,1-1.36,3.71-2,4.34-1,1-3.31,1.24-4.37,2" transform="translate(0 -2)" fill="#b7acac" fill-rule="evenodd"/><path d="M120.59,50.59c-4.4,1.55-2.25,8.14,2.32,6.73,4.29-1.31,2.38-8.39-2.32-6.73" transform="translate(0 -2)" fill="#b7acac" fill-rule="evenodd"/><path d="M39.28,109.09c1.89-5.15-5.77-7.64-7.47-2.81-1.87,5.29,5.68,7.67,7.47,2.81" transform="translate(0 -2)" fill="#b7acac" fill-rule="evenodd"/><path d="M29.76,118.69c1.58-.59.34-.76,2.28-.89a5.35,5.35,0,0,0,3.64-1c-.86-.62-1.68-.4-2.6-.79,2.41-.37,2.33-.28,2.89-1.14-1.27-1-3.54-.41-5.2-.61.54.43,2,0,2.73-.19,2.22-.41,1.93-.29,2.33-1.13l-1.45-.48c-1.11-.14-3.1.28-4.37,0l-.62.52c.55,2.3-.11,3.09,1,5.24Z" transform="translate(0 -2)" fill="#f0cdbc" fill-rule="evenodd"/><path d="M35.33,26.66C40.49,28.45,37.39,28,39.79,31c1.62-4.71.87-2.42,4.3-4.46-3.1-2.19-2.64.6-4.25-4.42-1.66,1.73,0,2.57-3,3.7a6.2,6.2,0,0,0-.69.28c-.84.45-.38.16-.83.61" transform="translate(0 -2)" fill="#b7acac" fill-rule="evenodd"/><path d="M67.71,117.66a3.9,3.9,0,0,0,2.45.12c1.15,2,1.23,1.82.9,2.28-.22.31-.08-.07-.45.46l2.16,0,.57-2.19c-.52.1-.48.76-1.6,1.12l-1.2-1.92c1.15-1,1.45-.51,1.51-2.34-2.61-2.18-5.49-.78-4.34,2.49" transform="translate(0 -2)" fill="#44281b" fill-rule="evenodd"/><path d="M174,78.43c-2.86,1.43-.78,5.32,2,4.08,2.46-1.09.93-5.55-2-4.08" transform="translate(0 -2)" fill="#b7acac" fill-rule="evenodd"/><path d="M156.77,24.51c2.86,1.08,2.13.5,3.36,3.08l.69-1c.23-.47.17-.66.53-1,.76-.74,1.15-.09,2-1.38-3.23-.87-1.68-1.12-3.27-3-.91,2.54-.69,2.39-3.35,3.35" transform="translate(0 -2)" fill="#b7acac" fill-rule="evenodd"/><path d="M103.88,28.78c-.85.32-.72-.15-1.21.82a2.38,2.38,0,0,0,0,1.78,2.07,2.07,0,0,0,2.83,1c1.93-.82,1.21-4.64-1.57-3.59" transform="translate(0 -2)" fill="#b7acac" fill-rule="evenodd"/><path d="M75.71,82.33c2.47,1.22,1.19.14,2.42,2.45,1-1.82-.09-.94,1.69-2.16l.61-.61c-2.15-.9-1.14-.62-2.22-2.19-1.55,1.62,1.06-.1-2.19,2.23Z" transform="translate(0 -2)" fill="#b7acac" fill-rule="evenodd"/><path d="M136,31.62c-3.35-.85-3,2.28-1.58,2.82,1.7.64,2.8-1.08,1.58-2.82" transform="translate(0 -2)" fill="#b7acac" fill-rule="evenodd"/><path d="M27.09,48.5c1.06-1.44.83-3.49-1.29-3-1.42.32-2.15,3.36,1.29,3" transform="translate(0 -2)" fill="#b7acac" fill-rule="evenodd"/><path d="M157.21,53.7c.79-1.14.71-1.19.4-2.41-3.45-1.83-4.28,3.23-.4,2.41" transform="translate(0 -2)" fill="#b7acac" fill-rule="evenodd"/><path d="M55,109.47c4.58.41,4-5,1-2.28a2.85,2.85,0,0,0-1,2.28" transform="translate(0 -2)" fill="#c27d5e" fill-rule="evenodd"/><path d="M71.2,101.57c1.51.31,3.25.36,3.85-1.19L74,99.65c-1-.25-3.09-.31-2.79,1.92" transform="translate(0 -2)" fill="#c27d5e" fill-rule="evenodd"/><path d="M35,73.25c1.12-1,1-1.26.36-2.53-3.19-.44-3.14,2.72-.36,2.53" transform="translate(0 -2)" fill="#b7acac" fill-rule="evenodd"/><path d="M142.91,66c1.76,1.3.81-.2,2,2.08.58-1.21.18-.84,1.07-1.54.08-.06.35-.23.42-.29l.39-.38c-2.17-.68-.79-.2-1.95-1.76-.68,1.84-.14,1.2-1.9,1.89" transform="translate(0 -2)" fill="#b7acac" fill-rule="evenodd"/><text transform="translate(33.76 108.19)" font-size="7.17" fill="#231f20" font-family="Rupee">`</text><path d="M58.4,38.82l-.1,2.23c2.23,1,4.7.62,7.58.68-1.2,1.79-2.81,3.33-4.24,5.07-6.77,8.27-.8,6,4.94,5.78,3-.12,6.1.78,6.77-2-.2-2.24-5.29-1.56-8-1.59,2.54-4.16,7.71-7.15,7.37-9.24-.37-2.25-12.78-1.71-14.35-.94" transform="translate(0 -2)" fill="#b7acac" fill-rule="evenodd"/><path d="M79.48,49.12c-.78,1.62-2.84,3.32-4.12,5.23-2.66,3.95,2.66,2.49,4.8,2.4,2-.07,3.66.42,4.8-1.12-.66-2.17-3.07-1.32-5.42-1.62a15.7,15.7,0,0,1,2.61-3c1.14-1.07,2.16-1.76,2.52-3.43-2.07-1.94-13.73-1.38-9.73,1.18,1,.65,3.24.29,4.54.35" transform="translate(0 -2)" fill="#b7acac" fill-rule="evenodd"/><path d="M65.36,56.4c1,1.1,1.51.71,3.46.89-1,1.16-3.27,3.3-3.32,5.26,1.89.33,6.45.52,7.2-1.11-1.12-1.16-1.74-.76-3.74-.85,1.13-2,3.05-2.35,3.44-4.58-1.28-.87-6.73-1.46-7,.39" transform="translate(0 -2)" fill="#b7acac" fill-rule="evenodd"/><path d="M163.69,153.69a.83.83,0,0,1-.06.32.81.81,0,0,1-.18.26.78.78,0,0,1-.26.17,1,1,0,0,1-.35.06,1,1,0,0,1-.33-.06,1,1,0,0,1-.26-.18.8.8,0,0,1,0-1.15,1,1,0,0,1,.27-.17,1,1,0,0,1,.33-.06.9.9,0,0,1,.34.06.78.78,0,0,1,.26.17.93.93,0,0,1,.18.26.87.87,0,0,1,.06.32m-2.57.61-.19.07-.26.07-.3,0-.29,0a1.69,1.69,0,0,1-1.34-.49,2.1,2.1,0,0,1-.43-1.41v-3.16h-1v-1.09h1V147l1.36-.41v1.79h1.45v1.09h-1.45v2.91a1.23,1.23,0,0,0,.21.81.82.82,0,0,0,.64.23.93.93,0,0,0,.3,0,.83.83,0,0,0,.3-.13Zm-5.81-3.57a2.2,2.2,0,0,0-.07-.58,1.16,1.16,0,0,0-.22-.46,1.11,1.11,0,0,0-.4-.31,1.43,1.43,0,0,0-.58-.11,1.34,1.34,0,0,0-.52.1,1.39,1.39,0,0,0-.43.3,1.8,1.8,0,0,0-.33.47,1.77,1.77,0,0,0-.18.59Zm-2.73,1a1.71,1.71,0,0,0,.5,1.25,1.85,1.85,0,0,0,1.3.43,3.24,3.24,0,0,0,1-.16,3,3,0,0,0,.82-.42V154l-.32.16a3.2,3.2,0,0,1-.47.16,3.26,3.26,0,0,1-.61.13,5.58,5.58,0,0,1-.73.05,3.41,3.41,0,0,1-1.19-.2,2.26,2.26,0,0,1-.9-.6,2.52,2.52,0,0,1-.57-1,3.82,3.82,0,0,1-.2-1.32,3.69,3.69,0,0,1,.25-1.43,3,3,0,0,1,.67-1,2.56,2.56,0,0,1,.92-.58,2.74,2.74,0,0,1,1-.19,2.91,2.91,0,0,1,1.15.21,2.24,2.24,0,0,1,.82.59,2.56,2.56,0,0,1,.49.91,3.87,3.87,0,0,1,.16,1.16v.67Zm-3.23-.44v3H148v-3L145.24,146h1.58l1.69,3.51a1.1,1.1,0,0,1,.12.31l.07.23h0a1.82,1.82,0,0,1,.07-.25,2.14,2.14,0,0,1,.12-.28l1.75-3.52h1.48Zm-7.8,1.33a1.75,1.75,0,0,1-.15.72,1.64,1.64,0,0,1-.45.6,2.22,2.22,0,0,1-.75.39,3.26,3.26,0,0,1-1,.15l-.37,0a3.21,3.21,0,0,1-.43-.07l-.42-.1a2,2,0,0,1-.35-.13v-1.29a3.26,3.26,0,0,0,.4.24,2.26,2.26,0,0,0,.43.17,2.17,2.17,0,0,0,.42.11,1.73,1.73,0,0,0,.37,0,1.26,1.26,0,0,0,.75-.18.55.55,0,0,0,.23-.46.68.68,0,0,0-.05-.27.49.49,0,0,0-.17-.22,1.51,1.51,0,0,0-.35-.23,6.25,6.25,0,0,0-.6-.27,4.64,4.64,0,0,1-.59-.29,2.13,2.13,0,0,1-.46-.37,1.47,1.47,0,0,1-.28-.47,1.76,1.76,0,0,1-.1-.64,1.66,1.66,0,0,1,.16-.73,1.69,1.69,0,0,1,.46-.58,2.24,2.24,0,0,1,.72-.38,2.83,2.83,0,0,1,.95-.14l.38,0,.37.06.33.08.27.09v1.22a2.27,2.27,0,0,0-.31-.17l-.35-.13-.37-.08a2.19,2.19,0,0,0-.36,0,1,1,0,0,0-.64.18.55.55,0,0,0-.24.46.85.85,0,0,0,0,.3.63.63,0,0,0,.17.23,1.7,1.7,0,0,0,.33.2,4.52,4.52,0,0,0,.51.22c.22.09.42.19.61.29a2.33,2.33,0,0,1,.49.37,1.55,1.55,0,0,1,.32.48A1.75,1.75,0,0,1,141.55,152.64Zm-6.62,1.71V151a2.2,2.2,0,0,0-.28-1.25,1,1,0,0,0-.92-.42,1.18,1.18,0,0,0-.56.13,1.45,1.45,0,0,0-.45.33,1.58,1.58,0,0,0-.3.52,2,2,0,0,0-.11.65v3.41H131v-6h1.35v1h0a2.13,2.13,0,0,1,1.95-1.1,1.83,1.83,0,0,1,1.48.61,2.76,2.76,0,0,1,.52,1.85v3.68Zm-6.78-3a2.23,2.23,0,0,0-.45-1.51,1.52,1.52,0,0,0-1.21-.52,1.91,1.91,0,0,0-.68.13,1.41,1.41,0,0,0-.53.38,1.6,1.6,0,0,0-.36.64,2.84,2.84,0,0,0-.13.92,3,3,0,0,0,.12.89,1.78,1.78,0,0,0,.36.62,1.36,1.36,0,0,0,.54.38,1.92,1.92,0,0,0,.69.12,1.48,1.48,0,0,0,1.23-.52A2.4,2.4,0,0,0,128.15,151.34Zm1.4,0a3.71,3.71,0,0,1-.22,1.33,2.82,2.82,0,0,1-.64,1,2.69,2.69,0,0,1-1,.64,3.47,3.47,0,0,1-1.28.22,3.42,3.42,0,0,1-1.27-.22,2.68,2.68,0,0,1-1-.61,2.86,2.86,0,0,1-.61-1,3.7,3.7,0,0,1-.21-1.28,3.75,3.75,0,0,1,.24-1.39,2.79,2.79,0,0,1,.65-1,2.71,2.71,0,0,1,1-.61,4,4,0,0,1,1.28-.2,3.42,3.42,0,0,1,1.29.22,2.59,2.59,0,0,1,.94.63,2.72,2.72,0,0,1,.57,1A3.79,3.79,0,0,1,129.55,151.3Zm-8.92,3v-6H122v6Zm1.53-8.12a.73.73,0,0,1-.06.3.76.76,0,0,1-.18.25.78.78,0,0,1-.26.17.94.94,0,0,1-.66,0,1,1,0,0,1-.27-.17.74.74,0,0,1-.17-.25.73.73,0,0,1-.06-.3.78.78,0,0,1,.06-.31,1,1,0,0,1,.18-.26.76.76,0,0,1,.26-.16.88.88,0,0,1,.33-.06.87.87,0,0,1,.32.06,1,1,0,0,1,.27.17.74.74,0,0,1,.17.25A.67.67,0,0,1,122.16,146.23Zm-2.78,8.07-.19.07-.26.07-.3,0-.29,0A1.69,1.69,0,0,1,117,154a2.1,2.1,0,0,1-.43-1.41v-3.16h-1v-1.09h1V147l1.36-.41v1.79h1.45v1.09h-1.45v2.91a1.23,1.23,0,0,0,.21.81.82.82,0,0,0,.64.23.93.93,0,0,0,.3,0,.83.83,0,0,0,.3-.13Zm-4.57-.2a2.85,2.85,0,0,1-.73.29,3.93,3.93,0,0,1-1,.11,3.08,3.08,0,0,1-1.24-.23,2.62,2.62,0,0,1-.93-.62,2.84,2.84,0,0,1-.6-1,3.31,3.31,0,0,1-.21-1.19,3.92,3.92,0,0,1,.22-1.36,2.86,2.86,0,0,1,1.67-1.71,3.82,3.82,0,0,1,1.35-.23,3.44,3.44,0,0,1,.46,0l.4.07a2.31,2.31,0,0,1,.34.1,1.45,1.45,0,0,1,.24.1v1.29a2.35,2.35,0,0,0-.64-.35,2,2,0,0,0-.74-.14,2,2,0,0,0-.75.14,1.75,1.75,0,0,0-.6.4,2,2,0,0,0-.4.65,2.48,2.48,0,0,0-.15.89,2.63,2.63,0,0,0,.13.83,1.78,1.78,0,0,0,.37.63,1.51,1.51,0,0,0,.59.4,1.94,1.94,0,0,0,.78.14,1.61,1.61,0,0,0,.37,0,2.59,2.59,0,0,0,.37-.11,2.17,2.17,0,0,0,.35-.15l.32-.2Zm-8.4-2.49a1.88,1.88,0,0,0-.55.12.88.88,0,0,0-.33.2.69.69,0,0,0-.16.29,1,1,0,0,0-.05.36.8.8,0,0,0,.07.34.86.86,0,0,0,.2.27.92.92,0,0,0,.31.17,1.07,1.07,0,0,0,.41.07,1.34,1.34,0,0,0,.58-.12,1.22,1.22,0,0,0,.43-.31,1.27,1.27,0,0,0,.28-.46,1.48,1.48,0,0,0,.1-.57v-.53Zm1.28,2.74v-.82h0a2.06,2.06,0,0,1-.75.72,2,2,0,0,1-1,.25,2.3,2.3,0,0,1-.81-.13,1.65,1.65,0,0,1-.6-.37,1.57,1.57,0,0,1-.37-.56,2.09,2.09,0,0,1-.12-.72,2.36,2.36,0,0,1,.11-.72,1.66,1.66,0,0,1,.35-.6,2,2,0,0,1,.61-.43,3,3,0,0,1,.89-.24l1.75-.24a1.28,1.28,0,0,0-.29-.93,1.13,1.13,0,0,0-.84-.29,3.25,3.25,0,0,0-1.07.18,3.17,3.17,0,0,0-.93.49v-1.2l.37-.18a4.15,4.15,0,0,1,.53-.17l.61-.13a4.58,4.58,0,0,1,.63,0,2.9,2.9,0,0,1,1,.16,1.69,1.69,0,0,1,.72.46,2,2,0,0,1,.43.73,3.33,3.33,0,0,1,.14,1v3.8Zm-4.49-1.71a1.75,1.75,0,0,1-.15.72,1.64,1.64,0,0,1-.45.6,2.22,2.22,0,0,1-.75.39,3.26,3.26,0,0,1-1,.15l-.37,0a3.49,3.49,0,0,1-.43-.07l-.42-.1a2.34,2.34,0,0,1-.35-.13v-1.29a3.26,3.26,0,0,0,.4.24,2.26,2.26,0,0,0,.43.17,2.17,2.17,0,0,0,.42.11,1.76,1.76,0,0,0,.38,0,1.22,1.22,0,0,0,.74-.18.55.55,0,0,0,.23-.46.68.68,0,0,0,0-.27.43.43,0,0,0-.17-.22,1.51,1.51,0,0,0-.35-.23,6.25,6.25,0,0,0-.6-.27,5.41,5.41,0,0,1-.59-.29,1.86,1.86,0,0,1-.45-.37,1.33,1.33,0,0,1-.29-.47,2,2,0,0,1-.1-.64,1.65,1.65,0,0,1,.62-1.31,2.24,2.24,0,0,1,.72-.38,2.87,2.87,0,0,1,1-.14l.38,0,.37.06.34.08.26.09v1.22a1.8,1.8,0,0,0-.31-.17l-.34-.13-.37-.08-.37,0a1,1,0,0,0-.64.18.55.55,0,0,0-.24.46.85.85,0,0,0,0,.3.56.56,0,0,0,.18.23,1.36,1.36,0,0,0,.32.2l.51.22a5.8,5.8,0,0,1,.61.29,2.33,2.33,0,0,1,.49.37,1.48,1.48,0,0,1,.43,1.12Zm-6.62,1.71V151a2.2,2.2,0,0,0-.28-1.25,1,1,0,0,0-.92-.42,1.21,1.21,0,0,0-.56.13,1.45,1.45,0,0,0-.45.33,1.58,1.58,0,0,0-.3.52,2,2,0,0,0-.11.65v3.41H92.61v-6H94v1h0a2.23,2.23,0,0,1,.85-.85,2.33,2.33,0,0,1,1.09-.25,1.83,1.83,0,0,1,1.48.61,2.76,2.76,0,0,1,.53,1.85v3.68Zm-8.14-2.74a1.8,1.8,0,0,0-.54.12.88.88,0,0,0-.33.2.72.72,0,0,0-.17.29,1.25,1.25,0,0,0-.05.36,1,1,0,0,0,.07.34,1.05,1.05,0,0,0,.2.27,1,1,0,0,0,.32.17,1.07,1.07,0,0,0,.41.07,1.32,1.32,0,0,0,.57-.12,1.25,1.25,0,0,0,.44-.31,1.42,1.42,0,0,0,.28-.46,1.48,1.48,0,0,0,.1-.57v-.53Zm1.29,2.74v-.82h0a2.12,2.12,0,0,1-.74.72,2,2,0,0,1-1,.25,2.31,2.31,0,0,1-.82-.13,1.69,1.69,0,0,1-.59-.37,1.45,1.45,0,0,1-.37-.56,2.14,2.14,0,0,1,0-1.44,1.79,1.79,0,0,1,.34-.6,2.15,2.15,0,0,1,.61-.43,3.1,3.1,0,0,1,.9-.24l1.75-.24a1.24,1.24,0,0,0-.3-.93,1.1,1.1,0,0,0-.84-.29,3.37,3.37,0,0,0-2,.67v-1.2l.36-.18a5.52,5.52,0,0,1,.53-.17l.62-.13a4.44,4.44,0,0,1,.62,0,3,3,0,0,1,1,.16,1.69,1.69,0,0,1,.72.46,1.82,1.82,0,0,1,.42.73,3,3,0,0,1,.14,1v3.8Zm-4.16-4.68a.52.52,0,0,0-.15-.07l-.2-.07-.22-.05h-.22a1.14,1.14,0,0,0-.52.12,1.19,1.19,0,0,0-.42.36,1.68,1.68,0,0,0-.27.57,2.53,2.53,0,0,0-.11.76v3.07H82.11v-6h1.35v1.17h0a1.9,1.9,0,0,1,.28-.57,1.76,1.76,0,0,1,.36-.4,1.63,1.63,0,0,1,.43-.23,1.47,1.47,0,0,1,.46-.07,1.37,1.37,0,0,1,.29,0,1,1,0,0,1,.26.06ZM80,147.15v7.2H78.59v-7.2h-2.4V146h6.22v1.2Zm-9.18,4.19a2.29,2.29,0,0,0-.44-1.51,1.54,1.54,0,0,0-1.22-.52,1.86,1.86,0,0,0-.67.13,1.36,1.36,0,0,0-.54.38,1.88,1.88,0,0,0-.36.64,3.14,3.14,0,0,0-.13.92,2.69,2.69,0,0,0,.13.89,1.62,1.62,0,0,0,.35.62,1.47,1.47,0,0,0,.55.38,1.83,1.83,0,0,0,.68.12,1.48,1.48,0,0,0,1.23-.52A2.4,2.4,0,0,0,70.82,151.34Zm1.41,0a3.71,3.71,0,0,1-.23,1.33,2.8,2.8,0,0,1-.63,1,2.86,2.86,0,0,1-1,.64,3.57,3.57,0,0,1-1.29.22,3.33,3.33,0,0,1-1.26-.22,2.55,2.55,0,0,1-1.56-1.58,3.7,3.7,0,0,1-.21-1.28,3.75,3.75,0,0,1,.23-1.39,2.93,2.93,0,0,1,.65-1,2.79,2.79,0,0,1,1-.61,4.06,4.06,0,0,1,1.29-.2,3.4,3.4,0,0,1,1.28.22,2.51,2.51,0,0,1,.94.63,2.72,2.72,0,0,1,.57,1A3.78,3.78,0,0,1,72.23,151.3Zm-9.39,3L59,148.14,58.9,148l-.09-.15c0-.06-.05-.11-.07-.16a1.12,1.12,0,0,1-.05-.13h0c0,.05,0,.14,0,.26s0,.26,0,.4,0,.27,0,.4,0,.22,0,.27v5.46H57.35V146h1.77L62.83,152l.08.14a.86.86,0,0,1,.1.16c0,.06.07.11.1.16a.91.91,0,0,0,.07.14h0s0-.13,0-.26,0-.26,0-.41,0-.28,0-.42V146h1.37v8.4Z" transform="translate(0 -2)" fill="#231f20"/><path d="M108.5,167.31a2.74,2.74,0,0,1-.7,1.13,1.43,1.43,0,0,1-1,.36l-.31,0-.28-.05v-.82a.9.9,0,0,0,.23.07.71.71,0,0,0,.24,0,.8.8,0,0,0,.42-.13.91.91,0,0,0,.33-.42l.29-.67-1.71-4.25h1.08l1,3,.06.22c0,.07,0,.14,0,.19h0a1.27,1.27,0,0,0,0-.18l.06-.23,1-3h1Zm-6,.59h-.69l.42-2.08h.9Zm-2.35-1.1v-2.39a1.63,1.63,0,0,0-.2-.89.73.73,0,0,0-.65-.29.9.9,0,0,0-.4.08,1.08,1.08,0,0,0-.32.24,1.12,1.12,0,0,0-.21.37,1.34,1.34,0,0,0-.08.46v2.42h-1v-4.25h1v.68h0a1.53,1.53,0,0,1,.6-.61,1.66,1.66,0,0,1,.78-.18,1.34,1.34,0,0,1,1.05.43,2,2,0,0,1,.37,1.32v2.61Zm-4.81-2.14a1.66,1.66,0,0,0-.31-1.07,1.1,1.1,0,0,0-.87-.36,1.4,1.4,0,0,0-.47.08.94.94,0,0,0-.38.27,1.21,1.21,0,0,0-.26.46,2.08,2.08,0,0,0-.09.65,2,2,0,0,0,.09.63,1.11,1.11,0,0,0,.25.44,1.05,1.05,0,0,0,.39.27,1.24,1.24,0,0,0,.48.09,1.07,1.07,0,0,0,.87-.37A1.71,1.71,0,0,0,95.39,164.66Zm1,0a2.82,2.82,0,0,1-.16,1,1.92,1.92,0,0,1-1.15,1.17,2.69,2.69,0,0,1-.92.15,2.48,2.48,0,0,1-.89-.15,1.86,1.86,0,0,1-.68-.44,2,2,0,0,1-.43-.69,2.54,2.54,0,0,1-.15-.9,2.68,2.68,0,0,1,.17-1,1.9,1.9,0,0,1,.46-.72,1.87,1.87,0,0,1,.72-.43,2.63,2.63,0,0,1,.91-.15,2.35,2.35,0,0,1,.91.16,1.62,1.62,0,0,1,.66.45,1.84,1.84,0,0,1,.41.69A2.77,2.77,0,0,1,96.39,164.63Zm-6.33,2.17v-4.25h1v4.25ZM91.14,161a.54.54,0,0,1,0,.22.66.66,0,0,1-.12.17.62.62,0,0,1-.19.12.59.59,0,0,1-.23,0,.61.61,0,0,1-.24,0,.57.57,0,0,1-.18-.12.52.52,0,0,1-.13-.17.62.62,0,0,1,0-.44.83.83,0,0,1,.13-.18.57.57,0,0,1,.18-.12.64.64,0,0,1,.24,0,.59.59,0,0,1,.23,0,.57.57,0,0,1,.18.12.46.46,0,0,1,.13.18A.54.54,0,0,1,91.14,161Zm-2,5.72-.14.05-.18.05-.21,0h-.21a1.21,1.21,0,0,1-1-.34,1.51,1.51,0,0,1-.3-1v-2.24h-.71v-.77h.71v-1l1-.3v1.28h1v.77h-1v2.06a.85.85,0,0,0,.15.57.55.55,0,0,0,.45.17.59.59,0,0,0,.21,0,.63.63,0,0,0,.22-.09Zm-3.24-.14a2.26,2.26,0,0,1-.52.21,2.87,2.87,0,0,1-.69.07,2.21,2.21,0,0,1-.87-.16,1.82,1.82,0,0,1-.67-.44,2.11,2.11,0,0,1-.42-.67,2.34,2.34,0,0,1-.15-.85,2.69,2.69,0,0,1,.16-1,2,2,0,0,1,.46-.74,2.09,2.09,0,0,1,.72-.47,2.63,2.63,0,0,1,1-.17l.33,0,.29,0,.23.07.18.08v.91a1.66,1.66,0,0,0-.45-.25,1.55,1.55,0,0,0-.53-.09,1.51,1.51,0,0,0-.53.09,1.26,1.26,0,0,0-.43.29,1.32,1.32,0,0,0-.28.46,1.73,1.73,0,0,0-.11.63,1.82,1.82,0,0,0,.1.59,1.26,1.26,0,0,0,.26.45,1.2,1.2,0,0,0,.41.28,1.64,1.64,0,0,0,.56.1l.26,0,.26-.08.25-.11.23-.14Zm-6-1.77a1.41,1.41,0,0,0-.38.09.76.76,0,0,0-.24.14.47.47,0,0,0-.12.2,1,1,0,0,0,0,.26.6.6,0,0,0,.05.24.45.45,0,0,0,.14.19.67.67,0,0,0,.22.13.92.92,0,0,0,.29,0,.91.91,0,0,0,.41-.08,1,1,0,0,0,.31-.22,1,1,0,0,0,.2-.32,1.1,1.1,0,0,0,.07-.41v-.38Zm.91,2v-.59h0a1.52,1.52,0,0,1-.52.52,1.58,1.58,0,0,1-.74.17,1.7,1.7,0,0,1-.57-.09,1.24,1.24,0,0,1-.43-.26,1.11,1.11,0,0,1-.26-.4,1.65,1.65,0,0,1-.08-.51,1.7,1.7,0,0,1,.07-.51,1.27,1.27,0,0,1,.25-.42,1.25,1.25,0,0,1,.43-.31,2.21,2.21,0,0,1,.64-.17l1.24-.17a.9.9,0,0,0-.21-.66.81.81,0,0,0-.6-.21,2.41,2.41,0,0,0-.75.13,2.31,2.31,0,0,0-.66.35v-.85l.26-.13.37-.12c.14,0,.29-.07.44-.09a3.42,3.42,0,0,1,.44,0,2.31,2.31,0,0,1,.74.11,1.5,1.5,0,0,1,.51.33,1.48,1.48,0,0,1,.3.52,2.52,2.52,0,0,1,.1.7v2.7Zm-3.18-1.22a1.31,1.31,0,0,1-.11.52,1.18,1.18,0,0,1-.32.42,1.57,1.57,0,0,1-.53.28,2.34,2.34,0,0,1-.73.1,1.32,1.32,0,0,1-.27,0,1.57,1.57,0,0,1-.3,0l-.3-.07-.25-.09v-.92a1.61,1.61,0,0,0,.28.17l.31.13a1.63,1.63,0,0,0,.3.07l.26,0a.92.92,0,0,0,.53-.12.41.41,0,0,0,.16-.34.58.58,0,0,0,0-.19.4.4,0,0,0-.12-.15,1.08,1.08,0,0,0-.25-.16,3.81,3.81,0,0,0-.43-.19l-.42-.21a1.65,1.65,0,0,1-.32-.26,1.27,1.27,0,0,1-.2-.34,1.42,1.42,0,0,1-.07-.45,1.26,1.26,0,0,1,.11-.51,1.2,1.2,0,0,1,.33-.41,1.56,1.56,0,0,1,.51-.28,2.07,2.07,0,0,1,.68-.1l.26,0,.27,0,.23.06.19.06v.87a.94.94,0,0,0-.22-.12l-.24-.1-.27-.05a1.09,1.09,0,0,0-.26,0,.75.75,0,0,0-.45.13.42.42,0,0,0-.17.33.65.65,0,0,0,0,.21A.38.38,0,0,0,76,164a1.54,1.54,0,0,0,.23.14l.36.15.44.21a1.53,1.53,0,0,1,.34.26,1,1,0,0,1,.23.34A1.25,1.25,0,0,1,77.71,165.58ZM73,166.8v-2.39a1.54,1.54,0,0,0-.21-.89.71.71,0,0,0-.64-.29.87.87,0,0,0-.4.08,1.08,1.08,0,0,0-.32.24,1.12,1.12,0,0,0-.21.37,1.34,1.34,0,0,0-.08.46v2.42h-1v-4.25h1v.68h0a1.53,1.53,0,0,1,.6-.61,1.66,1.66,0,0,1,.78-.18,1.31,1.31,0,0,1,1,.43,2,2,0,0,1,.38,1.32v2.61Zm-5.77-2a1.61,1.61,0,0,0-.39.09.7.7,0,0,0-.23.14.47.47,0,0,0-.12.2,1,1,0,0,0,0,.26.6.6,0,0,0,0,.24.58.58,0,0,0,.15.19.67.67,0,0,0,.22.13.85.85,0,0,0,.29,0,.91.91,0,0,0,.41-.08,1,1,0,0,0,.31-.22,1.16,1.16,0,0,0,.2-.32,1.35,1.35,0,0,0,.07-.41v-.38Zm.91,2v-.59h0a1.46,1.46,0,0,1-.53.52,1.54,1.54,0,0,1-.73.17,1.76,1.76,0,0,1-.58-.09,1.19,1.19,0,0,1-.42-.26,1.11,1.11,0,0,1-.26-.4,1.4,1.4,0,0,1-.09-.51,1.7,1.7,0,0,1,.08-.51,1.12,1.12,0,0,1,.25-.42,1.16,1.16,0,0,1,.43-.31,2.23,2.23,0,0,1,.63-.17l1.25-.17a.9.9,0,0,0-.21-.66.81.81,0,0,0-.6-.21,2.48,2.48,0,0,0-.76.13,2.39,2.39,0,0,0-.65.35v-.85l.26-.13.37-.12c.14,0,.28-.07.43-.09a3.75,3.75,0,0,1,.45,0,2.24,2.24,0,0,1,.73.11,1.33,1.33,0,0,1,.51.33,1.23,1.23,0,0,1,.3.52,2.19,2.19,0,0,1,.1.7v2.7Zm-3-3.32-.11,0-.14-.05-.15,0h-.16a.77.77,0,0,0-.37.08.89.89,0,0,0-.29.26,1.16,1.16,0,0,0-.2.4,1.81,1.81,0,0,0-.07.54v2.18h-1v-4.25h1v.82h0a1.87,1.87,0,0,1,.2-.4,1.48,1.48,0,0,1,.26-.29,1.3,1.3,0,0,1,.31-.16,1.13,1.13,0,0,1,.32-.05H65l.18.05Zm-3.34,3.28-.14.05-.18.05-.21,0h-.21a1.21,1.21,0,0,1-1-.34,1.51,1.51,0,0,1-.3-1v-2.24h-.71v-.77h.71v-1l1-.3v1.28h1v.77h-1v2.06A.85.85,0,0,0,61,166a.57.57,0,0,0,.45.17.59.59,0,0,0,.21,0,.63.63,0,0,0,.22-.09Zm-5.47,0-.14.05-.18.05-.21,0h-.21a1.21,1.21,0,0,1-.95-.34,1.51,1.51,0,0,1-.3-1v-2.24H53.7v-.77h.71v-1l1-.3v1.28h1v.77h-1v2.06a.85.85,0,0,0,.15.57.64.64,0,0,0,.66.13.63.63,0,0,0,.22-.09Zm-3.17-1.18a1.31,1.31,0,0,1-.11.52,1.18,1.18,0,0,1-.32.42,1.57,1.57,0,0,1-.53.28,2.37,2.37,0,0,1-.74.1,1.23,1.23,0,0,1-.26,0,1.81,1.81,0,0,1-.31,0l-.29-.07-.25-.09v-.92a1.61,1.61,0,0,0,.28.17l.3.13a2.11,2.11,0,0,0,.3.07l.27,0a.92.92,0,0,0,.53-.12.44.44,0,0,0,.16-.34.58.58,0,0,0,0-.19.4.4,0,0,0-.12-.15,1.36,1.36,0,0,0-.25-.16,3.81,3.81,0,0,0-.43-.19l-.42-.21a1.4,1.4,0,0,1-.32-.26,1.05,1.05,0,0,1-.2-.34,1.18,1.18,0,0,1-.07-.45,1.26,1.26,0,0,1,.11-.51,1.07,1.07,0,0,1,.32-.41,1.73,1.73,0,0,1,.52-.28,2,2,0,0,1,.67-.1l.27,0,.26,0,.24.06.19.06v.87a.94.94,0,0,0-.22-.12l-.25-.1-.26-.05a1.15,1.15,0,0,0-.26,0,.75.75,0,0,0-.45.13.42.42,0,0,0-.17.33.46.46,0,0,0,0,.21.38.38,0,0,0,.12.17,1.16,1.16,0,0,0,.23.14,3.62,3.62,0,0,0,.36.15l.43.21a1.59,1.59,0,0,1,.35.26,1.13,1.13,0,0,1,.23.34A1.25,1.25,0,0,1,53.23,165.58Zm-3.29-2.1-.11,0-.14-.05-.15,0h-.16a.77.77,0,0,0-.37.08.89.89,0,0,0-.29.26,1.16,1.16,0,0,0-.2.4,1.81,1.81,0,0,0-.07.54v2.18h-1v-4.25h1v.82h0a1.57,1.57,0,0,1,.46-.69,1.46,1.46,0,0,1,.3-.16,1.26,1.26,0,0,1,.33-.05h.21l.18.05Zm-5.29-2.19a.77.77,0,0,0-.2-.07.66.66,0,0,0-.25,0,.62.62,0,0,0-.49.2.9.9,0,0,0-.18.6v.57h.95v.77h-.95v3.48h-1v-3.48h-.71v-.77h.71v-.63a1.61,1.61,0,0,1,.12-.63,1.35,1.35,0,0,1,.32-.48,1.44,1.44,0,0,1,.49-.3,1.73,1.73,0,0,1,.6-.11l.32,0a1,1,0,0,1,.24.06Zm.57,5.51v-4.25h1v4.25ZM46.3,161a.54.54,0,0,1,0,.22.66.66,0,0,1-.12.17.62.62,0,0,1-.19.12.59.59,0,0,1-.23,0,.61.61,0,0,1-.24,0,.57.57,0,0,1-.18-.12.52.52,0,0,1-.13-.17.78.78,0,0,1,0-.22.54.54,0,0,1,0-.22.55.55,0,0,1,.3-.3.64.64,0,0,1,.24,0,.59.59,0,0,1,.23,0,.57.57,0,0,1,.18.12.59.59,0,0,1,.13.18A.54.54,0,0,1,46.3,161Zm-7.06,2.44-.11,0-.14-.05-.15,0h-.16a.77.77,0,0,0-.37.08.89.89,0,0,0-.29.26,1.16,1.16,0,0,0-.2.4,1.81,1.81,0,0,0-.07.54v2.18h-1v-4.25h1v.82h0a1.57,1.57,0,0,1,.46-.69,1.3,1.3,0,0,1,.31-.16,1.13,1.13,0,0,1,.32-.05h.21l.18.05Zm-4.72,3.32v-.64h0a1.48,1.48,0,0,1-.22.29,1.09,1.09,0,0,1-.29.23,1,1,0,0,1-.36.16,1.42,1.42,0,0,1-.42.06,1.45,1.45,0,0,1-1.13-.44,2,2,0,0,1-.39-1.34v-2.57h1V165a1.56,1.56,0,0,0,.07.52.89.89,0,0,0,.18.35.77.77,0,0,0,.28.19,1,1,0,0,0,.35.06,1,1,0,0,0,.38-.08.81.81,0,0,0,.31-.21,1,1,0,0,0,.21-.35,1.43,1.43,0,0,0,.07-.48v-2.45h1v4.25Zm-4.7-2.14a1.61,1.61,0,0,0-.32-1.07,1.07,1.07,0,0,0-.86-.36,1.4,1.4,0,0,0-.47.08,1.05,1.05,0,0,0-.39.27,1.19,1.19,0,0,0-.25.46,2.08,2.08,0,0,0-.09.65,2,2,0,0,0,.09.63,1.11,1.11,0,0,0,.25.44,1,1,0,0,0,.38.27,1.3,1.3,0,0,0,.49.09,1.07,1.07,0,0,0,.87-.37A1.71,1.71,0,0,0,29.82,164.66Zm1,0a2.59,2.59,0,0,1-.16,1,1.91,1.91,0,0,1-.45.72,2,2,0,0,1-.7.45,2.59,2.59,0,0,1-.91.15,2.48,2.48,0,0,1-.89-.15,1.86,1.86,0,0,1-.68-.44,1.88,1.88,0,0,1-.43-.69,2.54,2.54,0,0,1-.15-.9,2.68,2.68,0,0,1,.17-1,1.86,1.86,0,0,1,1.17-1.15,2.69,2.69,0,0,1,.92-.15,2.38,2.38,0,0,1,.91.16,1.69,1.69,0,0,1,.66.45,1.84,1.84,0,0,1,.41.69A2.77,2.77,0,0,1,30.81,164.63Zm-6.52,2.68a2.75,2.75,0,0,1-.71,1.13,1.43,1.43,0,0,1-1,.36l-.31,0-.28-.05v-.82a1,1,0,0,0,.23.07.75.75,0,0,0,.24,0,.8.8,0,0,0,.42-.13.91.91,0,0,0,.33-.42l.29-.67-1.7-4.25h1.08l1,3,.06.22a1.81,1.81,0,0,1,0,.19h0a1.27,1.27,0,0,0,0-.18l.06-.23,1-3h1Zm-4.86-3.83-.1,0-.14-.05-.16,0h-.16a.8.8,0,0,0-.37.08.89.89,0,0,0-.29.26,1.36,1.36,0,0,0-.2.4,1.81,1.81,0,0,0-.07.54v2.18H17v-4.25h1v.82h0a1.86,1.86,0,0,1,.19-.4,1.26,1.26,0,0,1,.27-.29,1.08,1.08,0,0,1,.3-.16,1.19,1.19,0,0,1,.32-.05h.21l.18.05Zm-4.32.75a1.84,1.84,0,0,0,0-.41.8.8,0,0,0-.44-.55,1,1,0,0,0-.41-.08.91.91,0,0,0-.37.08,1,1,0,0,0-.31.21,1.14,1.14,0,0,0-.23.33,1.47,1.47,0,0,0-.13.42Zm-1.94.72a1.29,1.29,0,0,0,.35.89,1.33,1.33,0,0,0,.93.3,2.26,2.26,0,0,0,.69-.11,2.62,2.62,0,0,0,.58-.29v.81l-.22.11-.34.12-.43.09a4.17,4.17,0,0,1-.52,0,2.25,2.25,0,0,1-.84-.14,1.7,1.7,0,0,1-.64-.42,2,2,0,0,1-.41-.69,3,3,0,0,1-.14-.94,2.6,2.6,0,0,1,.18-1,2.17,2.17,0,0,1,.48-.71,1.93,1.93,0,0,1,.65-.41,2,2,0,0,1,.72-.14,2,2,0,0,1,.81.15,1.55,1.55,0,0,1,.58.42,1.88,1.88,0,0,1,.35.64,3.09,3.09,0,0,1,.11.83V165Zm-1.46,1.81-.14.05-.18.05-.21,0H11a1.21,1.21,0,0,1-1-.34,1.51,1.51,0,0,1-.3-1v-2.24H9v-.77h.71v-1l1-.3v1.28h1v.77h-1v2.06a.85.85,0,0,0,.15.57.55.55,0,0,0,.45.17.59.59,0,0,0,.21,0,.63.63,0,0,0,.22-.09Zm-3-5.47-.2-.07a.75.75,0,0,0-.26,0,.63.63,0,0,0-.49.2.9.9,0,0,0-.18.6v.57h1v.77h-1v3.48h-1v-3.48H5.88v-.77h.71v-.63a1.61,1.61,0,0,1,.12-.63,1.49,1.49,0,0,1,.32-.48,1.44,1.44,0,0,1,.49-.3,1.73,1.73,0,0,1,.6-.11l.32,0a1.31,1.31,0,0,1,.25.06Zm-5.81.87a.62.62,0,0,1,0-.1.5.5,0,0,0,0-.12.5.5,0,0,1,0-.12s0-.06,0-.08h0a.34.34,0,0,1,0,.09s0,.07,0,.11l0,.12,0,.1-.82,2.3H3.7Zm1.65,4.64L4,165.29H1.6l-.52,1.51H0l2.26-6H3.35l2.27,6Z" transform="translate(0 -2)" fill="#929497"/><path d="M220.18,166.33a.59.59,0,0,1-.05.23.57.57,0,0,1-.12.18.76.76,0,0,1-.19.12.69.69,0,0,1-.25,0,.59.59,0,0,1-.23,0,.8.8,0,0,1-.19-.13.83.83,0,0,1-.13-.18.54.54,0,0,1-.05-.22.59.59,0,0,1,.05-.23.83.83,0,0,1,.13-.18.41.41,0,0,1,.2-.12.59.59,0,0,1,.23-.05.6.6,0,0,1,.24.05.76.76,0,0,1,.19.12.57.57,0,0,1,.12.18.59.59,0,0,1,.05.23m-2.81-2.1a1.84,1.84,0,0,0-.05-.41.8.8,0,0,0-.44-.55,1,1,0,0,0-.41-.08.91.91,0,0,0-.37.08,1.06,1.06,0,0,0-.31.21,1.14,1.14,0,0,0-.23.33,1.47,1.47,0,0,0-.13.42Zm-1.94.72a1.29,1.29,0,0,0,.35.89,1.33,1.33,0,0,0,.93.3,2.26,2.26,0,0,0,.69-.11,2.41,2.41,0,0,0,.58-.29v.81l-.22.11-.34.12-.43.09a4.12,4.12,0,0,1-.51,0,2.26,2.26,0,0,1-.85-.14,1.78,1.78,0,0,1-.64-.42,1.82,1.82,0,0,1-.4-.69,2.69,2.69,0,0,1-.15-.94,2.43,2.43,0,0,1,.19-1,2,2,0,0,1,.47-.71,1.93,1.93,0,0,1,.65-.41,2,2,0,0,1,.72-.14,2,2,0,0,1,.81.15,1.55,1.55,0,0,1,.58.42,1.88,1.88,0,0,1,.35.64,3.09,3.09,0,0,1,.11.83V165Zm-1.22-1.47-.1,0-.14-.05-.16,0h-.15a.77.77,0,0,0-.37.08,1,1,0,0,0-.3.26,1.14,1.14,0,0,0-.19.4,1.8,1.8,0,0,0-.08.54v2.18h-1v-4.25h1v.82h0a1.5,1.5,0,0,1,.2-.4,1.22,1.22,0,0,1,.26-.29,1.46,1.46,0,0,1,.3-.16,1.26,1.26,0,0,1,.33-.05H214l.17.05Zm-4.32.75a1.84,1.84,0,0,0,0-.41.73.73,0,0,0-.16-.33.88.88,0,0,0-.28-.22,1,1,0,0,0-.41-.08,1,1,0,0,0-.37.08,1.06,1.06,0,0,0-.31.21,1.14,1.14,0,0,0-.23.33,1.87,1.87,0,0,0-.13.42ZM208,165a1.26,1.26,0,0,0,.36.89,1.29,1.29,0,0,0,.92.3,2.26,2.26,0,0,0,.69-.11,2.7,2.7,0,0,0,.59-.29v.81l-.23.11-.33.12-.44.09a4.12,4.12,0,0,1-.51,0,2.26,2.26,0,0,1-.85-.14,1.87,1.87,0,0,1-.64-.42,2,2,0,0,1-.4-.69,2.7,2.7,0,0,1-.14-.94,2.6,2.6,0,0,1,.18-1,2,2,0,0,1,.47-.71,1.93,1.93,0,0,1,.65-.41,2,2,0,0,1,.72-.14,2,2,0,0,1,.81.15,1.47,1.47,0,0,1,.58.42,1.73,1.73,0,0,1,.35.64,2.73,2.73,0,0,1,.12.83V165Zm-2.84,1.85v-2.41a1.61,1.61,0,0,0-.19-.87.72.72,0,0,0-.64-.29,1,1,0,0,0-.43.09,1,1,0,0,0-.31.26,1,1,0,0,0-.2.36,1.52,1.52,0,0,0-.06.42v2.44h-1v-6.3h1v2.71h0a1.91,1.91,0,0,1,.24-.32,1.83,1.83,0,0,1,.31-.24,1.79,1.79,0,0,1,.37-.15,1.44,1.44,0,0,1,.43-.06,1.29,1.29,0,0,1,1.07.45,2,2,0,0,1,.37,1.3v2.61Zm-6,0-.14.05-.18.05-.21,0h-.21a1.21,1.21,0,0,1-.95-.34,1.51,1.51,0,0,1-.3-1v-2.24h-.71v-.77h.71v-1l1-.3v1.28h1v.77h-1v2.06a.85.85,0,0,0,.15.57.57.57,0,0,0,.45.17.59.59,0,0,0,.21,0,.63.63,0,0,0,.22-.09Zm-4.51,0v-4.25h1v4.25Zm1.08-5.76a.54.54,0,0,1,0,.22.52.52,0,0,1-.13.17.57.57,0,0,1-.18.12.61.61,0,0,1-.24,0,.59.59,0,0,1-.23,0,.76.76,0,0,1-.19-.12.66.66,0,0,1-.12-.17.62.62,0,0,1,0-.44.46.46,0,0,1,.13-.18.57.57,0,0,1,.18-.12.59.59,0,0,1,.23,0,.67.67,0,0,1,.24,0,.57.57,0,0,1,.18.12.59.59,0,0,1,.13.18A.54.54,0,0,1,195.66,161Zm-5.29,3.19a1.84,1.84,0,0,0-.05-.41.73.73,0,0,0-.16-.33.88.88,0,0,0-.28-.22,1,1,0,0,0-.41-.08,1,1,0,0,0-.37.08,1.06,1.06,0,0,0-.31.21,1.14,1.14,0,0,0-.23.33,1.87,1.87,0,0,0-.13.42Zm-1.94.72a1.26,1.26,0,0,0,.36.89,1.29,1.29,0,0,0,.92.3,2.26,2.26,0,0,0,.69-.11,2.7,2.7,0,0,0,.59-.29v.81l-.23.11-.33.12-.44.09a4.12,4.12,0,0,1-.51,0,2.26,2.26,0,0,1-.85-.14,1.87,1.87,0,0,1-.64-.42,2,2,0,0,1-.4-.69,2.7,2.7,0,0,1-.14-.94,2.6,2.6,0,0,1,.18-1,2,2,0,0,1,.47-.71,1.93,1.93,0,0,1,.65-.41,2,2,0,0,1,.72-.14,2,2,0,0,1,.81.15,1.47,1.47,0,0,1,.58.42,1.73,1.73,0,0,1,.35.64,2.73,2.73,0,0,1,.12.83V165Zm-2.54-.72a1.84,1.84,0,0,0,0-.41.85.85,0,0,0-.16-.33.88.88,0,0,0-.28-.22,1,1,0,0,0-.41-.08,1,1,0,0,0-.37.08,1.06,1.06,0,0,0-.31.21,1.14,1.14,0,0,0-.23.33,1.87,1.87,0,0,0-.13.42ZM184,165a1.26,1.26,0,0,0,.36.89,1.29,1.29,0,0,0,.92.3,2.26,2.26,0,0,0,.69-.11,2.41,2.41,0,0,0,.58-.29v.81l-.22.11-.33.12-.44.09a4.12,4.12,0,0,1-.51,0,2.26,2.26,0,0,1-.85-.14,1.78,1.78,0,0,1-.64-.42,2,2,0,0,1-.4-.69,2.7,2.7,0,0,1-.14-.94,2.6,2.6,0,0,1,.18-1,2,2,0,0,1,.47-.71,1.93,1.93,0,0,1,.65-.41,2,2,0,0,1,.72-.14,2,2,0,0,1,.81.15,1.47,1.47,0,0,1,.58.42,1.73,1.73,0,0,1,.35.64,2.73,2.73,0,0,1,.12.83V165Zm-1.6.63a1.16,1.16,0,0,1-.11.52,1.07,1.07,0,0,1-.32.42,1.48,1.48,0,0,1-.53.28,2.3,2.3,0,0,1-.73.1,1.32,1.32,0,0,1-.27,0,1.57,1.57,0,0,1-.3,0l-.3-.07-.25-.09v-.92a1.69,1.69,0,0,0,.29.17l.3.13a1.63,1.63,0,0,0,.3.07l.26,0a.9.9,0,0,0,.53-.12.41.41,0,0,0,.16-.34.58.58,0,0,0,0-.19.4.4,0,0,0-.12-.15,1.08,1.08,0,0,0-.25-.16,4.5,4.5,0,0,0-.42-.19,4.1,4.1,0,0,1-.42-.21,1.21,1.21,0,0,1-.32-.26,1.08,1.08,0,0,1-.21-.34,1.42,1.42,0,0,1-.07-.45,1.13,1.13,0,0,1,.12-.51,1.07,1.07,0,0,1,.32-.41,1.56,1.56,0,0,1,.51-.28,2.07,2.07,0,0,1,.68-.1l.27,0,.26,0,.23.06.19.06v.87a.88.88,0,0,0-.21-.12l-.25-.1-.26-.05-.26,0a.76.76,0,0,0-.46.13.41.41,0,0,0-.16.33.66.66,0,0,0,0,.21.66.66,0,0,0,.12.17,1.54,1.54,0,0,0,.23.14l.36.15.44.21a1.53,1.53,0,0,1,.34.26,1,1,0,0,1,.23.34A1.25,1.25,0,0,1,182.35,165.58Zm-6.86-.92a1.61,1.61,0,0,0-.32-1.07,1.07,1.07,0,0,0-.86-.36,1.51,1.51,0,0,0-.48.08,1.1,1.1,0,0,0-.38.27,1.19,1.19,0,0,0-.25.46,2.08,2.08,0,0,0-.09.65,2,2,0,0,0,.09.63,1.11,1.11,0,0,0,.25.44,1,1,0,0,0,.38.27,1.3,1.3,0,0,0,.49.09,1.07,1.07,0,0,0,.87-.37A1.71,1.71,0,0,0,175.49,164.66Zm1,0a2.59,2.59,0,0,1-.16,1,1.91,1.91,0,0,1-.45.72,2,2,0,0,1-.7.45,2.59,2.59,0,0,1-.91.15,2.48,2.48,0,0,1-.89-.15,1.86,1.86,0,0,1-.68-.44,1.88,1.88,0,0,1-.43-.69,2.54,2.54,0,0,1-.15-.9,2.68,2.68,0,0,1,.17-1,1.86,1.86,0,0,1,1.17-1.15,2.69,2.69,0,0,1,.92-.15,2.38,2.38,0,0,1,.91.16,1.69,1.69,0,0,1,.66.45,1.84,1.84,0,0,1,.41.69A2.77,2.77,0,0,1,176.48,164.63Zm-4.85,2.13-.13.05-.19.05-.21,0h-.21a1.19,1.19,0,0,1-.94-.34,1.46,1.46,0,0,1-.31-1v-2.24h-.7v-.77h.7v-1l1-.3v1.28h1v.77h-1v2.06a.85.85,0,0,0,.14.57.59.59,0,0,0,.46.17.68.68,0,0,0,.21,0,.67.67,0,0,0,.21-.09Zm-6.45-2.53a1.84,1.84,0,0,0-.05-.41.85.85,0,0,0-.16-.33.88.88,0,0,0-.28-.22,1,1,0,0,0-.41-.08,1,1,0,0,0-.37.08,1.06,1.06,0,0,0-.31.21,1.14,1.14,0,0,0-.23.33,1.47,1.47,0,0,0-.13.42Zm-1.94.72a1.29,1.29,0,0,0,.35.89,1.33,1.33,0,0,0,.93.3,2.26,2.26,0,0,0,.69-.11,2.41,2.41,0,0,0,.58-.29v.81l-.22.11-.34.12-.43.09a4.12,4.12,0,0,1-.51,0,2.26,2.26,0,0,1-.85-.14,1.78,1.78,0,0,1-.64-.42,1.82,1.82,0,0,1-.4-.69,2.69,2.69,0,0,1-.15-.94,2.6,2.6,0,0,1,.19-1,2,2,0,0,1,.47-.71,1.93,1.93,0,0,1,.65-.41,2,2,0,0,1,.72-.14,2,2,0,0,1,.81.15,1.55,1.55,0,0,1,.58.42,1.88,1.88,0,0,1,.35.64,2.73,2.73,0,0,1,.11.83V165Zm-2.93,1.85v-6.3h1v6.3Zm-2-2.26a1.81,1.81,0,0,0-.07-.54,1.17,1.17,0,0,0-.2-.42,1.1,1.1,0,0,0-1.24-.26.93.93,0,0,0-.36.26,1.26,1.26,0,0,0-.23.39,1.72,1.72,0,0,0-.08.52v.56a1,1,0,0,0,.08.42,1.08,1.08,0,0,0,.21.34,1,1,0,0,0,.33.22.91.91,0,0,0,.41.09,1.21,1.21,0,0,0,.48-.1,1,1,0,0,0,.36-.3,1.31,1.31,0,0,0,.23-.49A2.42,2.42,0,0,0,158.31,164.54Zm1,0a3.08,3.08,0,0,1-.13.93,2.19,2.19,0,0,1-.37.75,1.84,1.84,0,0,1-.61.49,2,2,0,0,1-.84.17,1.7,1.7,0,0,1-.4,0,1.64,1.64,0,0,1-.33-.14,1.89,1.89,0,0,1-.27-.2,1.33,1.33,0,0,1-.21-.26h0v.54h-1v-6.3h1v2.73h0a2,2,0,0,1,.26-.32,1.26,1.26,0,0,1,.31-.25,1.45,1.45,0,0,1,.38-.16,1.87,1.87,0,0,1,1.25.11,1.76,1.76,0,0,1,.55.46,2.12,2.12,0,0,1,.31.68A3,3,0,0,1,159.31,164.56Zm-7.08.29a1.61,1.61,0,0,0-.39.09.89.89,0,0,0-.24.14.56.56,0,0,0-.11.2.71.71,0,0,0,0,.26.6.6,0,0,0,.05.24.55.55,0,0,0,.14.19.73.73,0,0,0,.23.13.85.85,0,0,0,.29,0,.95.95,0,0,0,.71-.3.83.83,0,0,0,.2-.32,1.1,1.1,0,0,0,.07-.41v-.38Zm.9,2v-.59h0a1.38,1.38,0,0,1-1.26.69,1.72,1.72,0,0,1-.58-.09,1.11,1.11,0,0,1-.42-.26,1,1,0,0,1-.26-.4,1.4,1.4,0,0,1-.09-.51,1.7,1.7,0,0,1,.08-.51,1,1,0,0,1,.25-.42,1.16,1.16,0,0,1,.43-.31,2.06,2.06,0,0,1,.63-.17l1.24-.17a.9.9,0,0,0-.21-.66.8.8,0,0,0-.59-.21,2.48,2.48,0,0,0-.76.13,2.25,2.25,0,0,0-.65.35v-.85l.25-.13.38-.12c.13,0,.28-.07.43-.09a3.58,3.58,0,0,1,.45,0,2.29,2.29,0,0,1,.73.11,1.33,1.33,0,0,1,.51.33,1.23,1.23,0,0,1,.3.52,2.19,2.19,0,0,1,.1.7v2.7Zm-6.46-2.57a1.4,1.4,0,0,0,0-.41.73.73,0,0,0-.16-.33.78.78,0,0,0-.28-.22,1,1,0,0,0-.41-.08,1,1,0,0,0-.37.08,1.21,1.21,0,0,0-.31.21,1.38,1.38,0,0,0-.23.33,1.87,1.87,0,0,0-.13.42Zm-1.94.72a1.26,1.26,0,0,0,.36.89,1.31,1.31,0,0,0,.92.3,2.38,2.38,0,0,0,.7-.11,2.85,2.85,0,0,0,.58-.29v.81l-.23.11-.33.12-.44.09a4.12,4.12,0,0,1-.51,0,2.26,2.26,0,0,1-.85-.14,1.87,1.87,0,0,1-.64-.42,2,2,0,0,1-.4-.69,3,3,0,0,1-.14-.94,2.6,2.6,0,0,1,.18-1,2.15,2.15,0,0,1,.47-.71,2,2,0,0,1,1.37-.55,2.1,2.1,0,0,1,.82.15,1.63,1.63,0,0,1,.58.42,1.87,1.87,0,0,1,.34.64,2.73,2.73,0,0,1,.12.83V165Zm-2.66-.41A1.81,1.81,0,0,0,142,164a1.38,1.38,0,0,0-.21-.42.93.93,0,0,0-.33-.26,1.06,1.06,0,0,0-.45-.09,1.14,1.14,0,0,0-.46.09,1,1,0,0,0-.35.26,1.09,1.09,0,0,0-.23.39,1.46,1.46,0,0,0-.08.52v.56a1.16,1.16,0,0,0,.07.42,1.11,1.11,0,0,0,.22.34,1,1,0,0,0,.32.22,1,1,0,0,0,.42.09,1.29,1.29,0,0,0,.48-.1,1,1,0,0,0,.36-.3,1.31,1.31,0,0,0,.23-.49A2.84,2.84,0,0,0,142.07,164.54Zm1,0a3.08,3.08,0,0,1-.13.93,2.19,2.19,0,0,1-.37.75,1.94,1.94,0,0,1-.61.49,2,2,0,0,1-.84.17,1.64,1.64,0,0,1-.4,0,2,2,0,0,1-.34-.14l-.26-.2a1.33,1.33,0,0,1-.21-.26h0v.54h-1v-6.3h1v2.73h0a2.72,2.72,0,0,1,.25-.32,1.79,1.79,0,0,1,.31-.25,1.68,1.68,0,0,1,.39-.16,1.65,1.65,0,0,1,.46-.06,1.74,1.74,0,0,1,.79.17,1.61,1.61,0,0,1,.54.46,2.13,2.13,0,0,1,.32.68A3.52,3.52,0,0,1,143.07,164.56Zm-8.74,2.24v-6.3h1v6.3Zm-2.26,0v-6.3h1v6.3Zm-2.26,0v-4.25h1v4.25Zm1.08-5.76a.54.54,0,0,1,0,.22.66.66,0,0,1-.12.17.62.62,0,0,1-.19.12.59.59,0,0,1-.23,0,.61.61,0,0,1-.24,0,.57.57,0,0,1-.18-.12.52.52,0,0,1-.13-.17.78.78,0,0,1,0-.22.54.54,0,0,1,0-.22.57.57,0,0,1,.12-.18.52.52,0,0,1,.19-.12.56.56,0,0,1,.23,0,.59.59,0,0,1,.23,0,.76.76,0,0,1,.19.12.57.57,0,0,1,.12.18A.54.54,0,0,1,130.89,161Zm-3.07,5.76h-1L126,164s0-.08,0-.12,0-.07,0-.12,0-.07,0-.11,0-.07,0-.1h0a2.08,2.08,0,0,1,0,.23c0,.08,0,.15-.05.21L125,166.8h-1l-1.25-4.25h1l.75,3a1.08,1.08,0,0,1,0,.21,1,1,0,0,0,0,.2h0c0-.05,0-.13,0-.21a1.19,1.19,0,0,1,.05-.22l.87-3h.92l.8,3a1.09,1.09,0,0,1,0,.22,1.91,1.91,0,0,1,0,.2h0v-.1s0-.07,0-.11a.5.5,0,0,0,0-.12l0-.09.72-3h.92Zm-9.08,0v-.64h0a1.12,1.12,0,0,1-.21.29,1.09,1.09,0,0,1-.29.23,1.17,1.17,0,0,1-.36.16,1.42,1.42,0,0,1-.42.06,1.45,1.45,0,0,1-1.13-.44,2,2,0,0,1-.39-1.34v-2.57h1V165a1.9,1.9,0,0,0,.06.52,1.06,1.06,0,0,0,.19.35.7.7,0,0,0,.28.19,1,1,0,0,0,.35.06,1,1,0,0,0,.38-.08.81.81,0,0,0,.31-.21,1.19,1.19,0,0,0,.2-.35,1.21,1.21,0,0,0,.08-.48v-2.45h1v4.25Zm-4.7-2.14a1.61,1.61,0,0,0-.32-1.07,1.07,1.07,0,0,0-.86-.36,1.51,1.51,0,0,0-.48.08,1.1,1.1,0,0,0-.38.27,1.19,1.19,0,0,0-.25.46,2.08,2.08,0,0,0-.09.65,2,2,0,0,0,.09.63,1,1,0,0,0,.25.44,1,1,0,0,0,.38.27,1.3,1.3,0,0,0,.49.09,1.07,1.07,0,0,0,.87-.37A1.71,1.71,0,0,0,114,164.66Zm1,0a2.59,2.59,0,0,1-.16,1,1.91,1.91,0,0,1-.45.72,2,2,0,0,1-.7.45,2.59,2.59,0,0,1-.91.15,2.48,2.48,0,0,1-.89-.15,1.86,1.86,0,0,1-.68-.44,1.88,1.88,0,0,1-.43-.69,2.54,2.54,0,0,1-.15-.9,2.69,2.69,0,0,1,.16-1,2,2,0,0,1,.47-.72,1.83,1.83,0,0,1,.71-.43,2.67,2.67,0,0,1,.91-.15,2.4,2.4,0,0,1,.92.16,1.69,1.69,0,0,1,.66.45,2,2,0,0,1,.41.69A2.77,2.77,0,0,1,115,164.63Z" transform="translate(0 -2)" fill="#929497"/></svg>